<?xml version="1.0" encoding="utf-8"?>
<!-- Generator: Adobe Illustrator 25.4.1, SVG Export Plug-In . SVG Version: 6.00 Build 0)  -->
<svg version="1.1" xmlns="http://www.w3.org/2000/svg" xmlns:xlink="http://www.w3.org/1999/xlink" x="0px" y="0px" width="120px"
	 height="90px" viewBox="0 0 120 90" enable-background="new 0 0 120 90" xml:space="preserve">
<g id="Layer_3">
</g>
<g id="Full_Color_Icons_120x120">
	<g id="CostControl" transform="translate(0.65 0.727)">
		<g id="CostControl-2" transform="translate(0 0)">
			<ellipse id="Ellipse_154" fill="#38C6F4" cx="62.4002" cy="41.1234" rx="26.0047" ry="26.0047"/>
			<path id="Path_312" fill="none" stroke="#FF9E18" stroke-width="0.936" stroke-linecap="round" stroke-linejoin="round" d="
				M79.5502,1.2192l1.3674,10.834C64.0221-0.706,39.9823,2.6473,27.2233,19.543c-11.1787,14.8024-10.155,35.4853,2.4306,49.1123"/>
			<path id="Path_314" fill="none" stroke="#FF9E18" stroke-width="0.936" stroke-linecap="round" stroke-linejoin="round" d="
				M49.0872,73.6514l-10.5834,3.1916c17.1892,12.3605,41.1438,8.4462,53.5045-8.7431c10.6345-14.7885,9.3938-35.0185-2.9683-48.397"
				/>
			<g id="Group_186" transform="translate(8.248 10.092)">
				
					<ellipse id="Ellipse_155_3_" fill="none" stroke="#083176" stroke-width="0.936" cx="51.0981" cy="34.0854" rx="26.0047" ry="26.0047"/>
				<g id="Group_185_1_" transform="translate(10.77 6.863)">
					<path id="Path_315_1_" fill="#083176" d="M38.4484,41.6962v-3.3598c-2.0984-0.0599-4.1579-0.5807-6.0324-1.5257l1.0635-4.1513
						c1.8056,0.995,3.8284,1.5306,5.8897,1.5593c2.0158,0,3.4051-0.7792,3.4051-2.1975c0-1.3436-1.134-2.2024-3.7597-3.0891
						c-3.7982-1.2788-6.3837-3.0505-6.3837-6.4907c0-3.1227,2.2008-5.5704,5.9955-6.3144v-3.3729h3.4773v3.1227
						c1.7783,0.0287,3.531,0.4298,5.1455,1.1763l-1.0282,4.0103c-1.5905-0.7809-3.3366-1.1935-5.1086-1.2058
						c-2.3066,0-3.0524,0.9925-3.0524,1.9875c0,1.1763,1.2415,1.9153,4.2586,3.0505c4.2215,1.4904,5.9249,3.4385,5.9249,6.6359
						c0,3.158-2.236,5.8526-6.3164,6.5637v3.6182L38.4484,41.6962z"/>
				</g>
			</g>
		</g>
		
			<line id="Line_139" fill="none" stroke="#FF9E18" stroke-width="0.936" stroke-linecap="round" stroke-linejoin="round" x1="69.7514" y1="13.7898" x2="80.9193" y2="12.0562"/>
		
			<line id="Line_140" fill="none" stroke="#FF9E18" stroke-width="0.936" stroke-linecap="round" stroke-linejoin="round" x1="40.9916" y1="87.4968" x2="38.4986" y2="76.8345"/>
	</g>
</g>
<g id="Full_Color_Margins" display="none">
	<path display="inline" fill="#D0D2D3" d="M0-24.83V-25h-10v140h140V-24.83H0z M120,105H0V-14.83h120V105z"/>
	<path display="inline" fill="#D0D2D3" d="M0-24.83V-25h-10v140h140V-24.83H0z M120,105H0V-14.83h120V105z"/>
</g>
</svg>
