<?xml version="1.0" encoding="utf-8"?>
<!-- Generator: Adobe Illustrator 25.4.1, SVG Export Plug-In . SVG Version: 6.00 Build 0)  -->
<svg version="1.1" xmlns="http://www.w3.org/2000/svg" xmlns:xlink="http://www.w3.org/1999/xlink" x="0px" y="0px" width="120px"
	 height="90px" viewBox="0 0 120 90" enable-background="new 0 0 120 90" xml:space="preserve">
<g id="Layer_3">
</g>
<g id="Full_Color_Icons_120x120">
	<g id="Group_1049" transform="translate(0.651)">
		<ellipse id="Ellipse_441" fill="#38C6F4" cx="79.8051" cy="41.5105" rx="33.4207" ry="33.4207"/>
		<g id="Group_502" transform="translate(0 8.419)">
			
				<line id="Line_253" fill="none" stroke="#FF9E18" stroke-width="1.17" stroke-linecap="round" stroke-linejoin="round" x1="30.4635" y1="62.649" x2="52.2959" y2="62.649"/>
			
				<line id="Line_254" fill="none" stroke="#FF9E18" stroke-width="1.17" stroke-linecap="round" stroke-linejoin="round" x1="30.4635" y1="17.7136" x2="47.7139" y2="17.7136"/>
			
				<ellipse id="Ellipse_442" fill="none" stroke="#FF9E18" stroke-width="1.17" stroke-linecap="round" stroke-linejoin="round" cx="11.11" cy="52.3715" rx="5.7674" ry="5.7674"/>
			
				<ellipse id="Ellipse_443" fill="none" stroke="#FF9E18" stroke-width="1.17" stroke-linecap="round" stroke-linejoin="round" cx="24.696" cy="17.5652" rx="5.7674" ry="5.7674"/>
			
				<line id="Line_255" fill="none" stroke="#FF9E18" stroke-width="1.17" stroke-linecap="round" stroke-linejoin="round" x1="17.5775" y1="52.481" x2="44.4139" y2="52.481"/>
			<path id="Path_759" fill="none" stroke="#FF9E18" stroke-width="1.17" stroke-linecap="round" stroke-linejoin="round" d="
				M40.9237,43.7712l-9.2762-0.0288l0.0246-12.7535L6.6736,30.9122"/>
		</g>
		<g id="Group_503" transform="translate(25.042 1.818)">
			
				<ellipse id="Ellipse_444" fill="none" stroke="#083176" stroke-width="1.17" stroke-linecap="round" stroke-linejoin="round" cx="49.8023" cy="44.7945" rx="33.4307" ry="33.4307"/>
			
				<line id="Line_256" fill="none" stroke="#083176" stroke-width="1.17" stroke-linecap="round" stroke-linejoin="round" x1="81.3115" y1="33.6125" x2="18.2254" y2="55.7734"/>
			
				<line id="Line_257" fill="none" stroke="#083176" stroke-width="1.17" stroke-linecap="round" stroke-linejoin="round" x1="72.6258" y1="20.7222" x2="16.3715" y2="40.4833"/>
			
				<line id="Line_258" fill="none" stroke="#083176" stroke-width="1.17" stroke-linecap="round" stroke-linejoin="round" x1="82.4336" y1="49.2209" x2="26.5885" y2="68.838"/>
			
				<ellipse id="Ellipse_445" transform="matrix(0.9555 -0.2951 0.2951 0.9555 -10.9783 16.8323)" fill="none" stroke="#083176" stroke-width="1.1694" stroke-linecap="round" stroke-linejoin="round" stroke-miterlimit="3.9981" cx="50.2722" cy="44.7847" rx="13.4183" ry="33.4149"/>
		</g>
	</g>
</g>
<g id="Full_Color_Margins" display="none">
	<path display="inline" fill="#D0D2D3" d="M0-24.83V-25h-10v140h140V-24.83H0z M120,105H0V-14.83h120V105z"/>
</g>
</svg>
