<?xml version="1.0" encoding="utf-8"?>
<!-- Generator: Adobe Illustrator 25.4.1, SVG Export Plug-In . SVG Version: 6.00 Build 0)  -->
<svg version="1.1" xmlns="http://www.w3.org/2000/svg" xmlns:xlink="http://www.w3.org/1999/xlink" x="0px" y="0px" width="120px"
	 height="90px" viewBox="0 0 120 90" enable-background="new 0 0 120 90" xml:space="preserve">
<g id="Layer_3">
</g>
<g id="Full_Color_Icons_120x120">
	<g>
		<path id="Path_817" fill="none" stroke="#FF9E18" stroke-width="0.988" stroke-linecap="round" stroke-linejoin="round" d="
			M48.3982,66.7302c-10.6561-1.5-18.0786-11.3545-16.5786-22.0106s11.3545-18.0786,22.0106-16.5786
			c1.3232,0.1863,2.6238,0.5081,3.8811,0.9606l1.1111-7.7555l1.1235-7.9938l-10.5285-1.4797l-1.1062,7.8714
			c-3.6603,0.1805-7.2499,1.0752-10.5667,2.6338l-4.7561-6.3115l-8.4861,6.3947l4.6868,6.2272
			c-2.4707,2.6964-4.3778,5.8592-5.6095,9.3027l-0.0447,0.1332l-7.6821-1.0797L14.3731,47.573l7.6328,1.0727
			c0.1642,3.7037,1.0824,7.3349,2.6985,10.6714l-6.1387,4.6798l6.3941,8.4909l6.176-4.6454
			c2.7612,2.462,5.9924,4.3393,9.4987,5.5186l-1.0915,7.7664l10.5285,1.4797l1.0993-7.8221l1.1316-7.9018
			C50.9993,66.9631,49.6913,66.9118,48.3982,66.7302z"/>
		<path id="Path_816" fill="#FFFFFF" stroke="#083176" stroke-width="0.988" stroke-miterlimit="10" d="M93.0777,86.1827H46.084
			c-4.6684,0-8.453-3.7848-8.453-8.4532l0,0V67.6212c0.0002-3.1136,1.7122-5.9755,4.4561-7.448l9.2383-4.9585l3.4253-1.9155
			c2.1296-1.1902,4.6698-1.4027,6.9675-0.5826l4.9603,1.7665c1.8708,0.6696,3.9181,0.6578,5.7808-0.0337l4.7549-1.7665
			c2.3254-0.8617,4.9119-0.6578,7.0736,0.5575l3.467,1.9461l9.3137,4.9781c2.7494,1.4709,4.4657,4.336,4.4657,7.4543v10.1021
			c0.0049,4.6684-3.7756,8.4571-8.444,8.4618C93.086,86.1827,93.0819,86.1827,93.0777,86.1827z"/>
		<path id="Path_818" fill="#FFFFFF" stroke="#083176" stroke-width="0.988" stroke-miterlimit="10" d="M69.5864,48.5938
			c-9.182,0-16.6506-9.278-16.6506-20.681s7.4686-20.681,16.6506-20.681s16.6506,9.2765,16.6506,20.681
			S78.7667,48.5938,69.5864,48.5938z"/>
		<g id="Customer_4_" transform="translate(17.794 0)">
			<g id="exec_s_m_13_" transform="translate(2.229)">
				<path id="Path_115_3_" fill="#38C6F4" d="M76.2149,82.7783H30.35c-5.0605,0-9.1628-4.1023-9.1628-9.1628l0,0V64.535
					c-0.0002-3.3747,1.8551-6.4765,4.8286-8.0721l8.9266-4.7915l3.1747-1.7759c2.307-1.289,5.0581-1.5188,7.5472-0.6312
					l4.4657,1.5933c2.027,0.7237,4.2442,0.7104,6.2627-0.0369l4.2585-1.5768c2.5202-0.9346,5.3243-0.7151,7.6677,0.6022
					l3.2116,1.8018l9.0038,4.8174c2.9793,1.594,4.8396,4.6982,4.8399,8.0768v9.0726
					C85.3747,78.6744,81.2744,82.7767,76.2149,82.7783z"/>
				<path id="Path_116_3_" fill="#38C6F4" d="M53.2295,44.2759c-9.3827,0-17.0214-9.0726-17.0214-20.2332
					S43.8405,3.8173,53.2295,3.8173s17.0214,9.0726,17.0214,20.2254S62.6105,44.2759,53.2295,44.2759z"/>
			</g>
			<g id="exec_s_m-2_11_" transform="translate(0.001 2.119)">
				<path id="Path_815" fill="none" stroke="#083176" stroke-width="0.988" stroke-miterlimit="10" d="M75.2842,84.0635H28.2905
					c-4.6684,0-8.453-3.7848-8.453-8.4532l0,0V65.5019c0.0002-3.1136,1.7122-5.9755,4.4561-7.448l9.2383-4.9585l3.4253-1.9155
					c2.1296-1.1902,4.6698-1.4027,6.9675-0.5826l4.9603,1.7665c1.8708,0.6696,3.9181,0.6578,5.7808-0.0337l4.7549-1.7665
					c2.3254-0.8617,4.9119-0.6578,7.0736,0.5575l3.467,1.9461l9.3137,4.9781c2.7494,1.4709,4.4657,4.336,4.4657,7.4543v10.1021
					c0.0049,4.6684-3.7756,8.4571-8.444,8.4618C75.2925,84.0635,75.2884,84.0635,75.2842,84.0635z"/>
				<path id="Path_117_4_" fill="none" stroke="#083176" stroke-width="0.988" stroke-miterlimit="10" d="M75.2842,84.0635H28.2905
					c-4.6684,0-8.453-3.7848-8.453-8.4532l0,0V65.5019c0.0002-3.1136,1.7122-5.9755,4.4561-7.448l9.2383-4.9585l3.4253-1.9155
					c2.1296-1.1902,4.6698-1.4027,6.9675-0.5826l4.9603,1.7665c1.8708,0.6696,3.9181,0.6578,5.7808-0.0337l4.7549-1.7665
					c2.3254-0.8617,4.9119-0.6578,7.0736,0.5575l3.467,1.9461l9.3137,4.9781c2.7494,1.4709,4.4657,4.336,4.4657,7.4543v10.1021
					c0.0049,4.6684-3.7756,8.4571-8.444,8.4618C75.2925,84.0635,75.2884,84.0635,75.2842,84.0635z"/>
				<path id="Path_118_4_" fill="none" stroke="#083176" stroke-width="0.988" stroke-miterlimit="10" d="M51.7931,46.4738
					c-9.182,0-16.6506-9.278-16.6506-20.681s7.4686-20.681,16.6506-20.681s16.6506,9.2765,16.6506,20.681
					S60.9734,46.4738,51.7931,46.4738z"/>
			</g>
		</g>
	</g>
</g>
<g id="Full_Color_Margins" display="none">
	<path display="inline" fill="#D0D2D3" d="M0-24.83V-25h-10v140h140V-24.83H0z M120,105H0V-14.83h120V105z"/>
</g>
</svg>
