<?xml version="1.0" encoding="utf-8"?>
<!-- Generator: Adobe Illustrator 25.4.1, SVG Export Plug-In . SVG Version: 6.00 Build 0)  -->
<svg version="1.1" xmlns="http://www.w3.org/2000/svg" xmlns:xlink="http://www.w3.org/1999/xlink" x="0px" y="0px" width="120px"
	 height="90px" viewBox="0 0 120 90" enable-background="new 0 0 120 90" xml:space="preserve">
<g id="Layer_3">
</g>
<g id="Full_Color_Icons_120x120">
	<g>
		<path id="Path_1337" fill="#38C6F4" d="M95.0898,26.3555v48.5079c0,4.3064-3.4908,7.7974-7.7978,7.7974l0,0H38.8452
			c-4.306,0.0011-7.7987-3.4889-7.7996-7.7953c0-0.0008,0-0.0015,0-0.0021V10.9398c0.0009-4.3068,3.4926-7.7976,7.7996-7.7974
			h32.4942L95.0898,26.3555z"/>
		<path id="Path_1338" fill="none" stroke="#083176" stroke-width="0.91" stroke-linecap="round" stroke-linejoin="round" d="
			M90.3365,30.7197v48.5079c0,4.3064-3.4908,7.7974-7.7978,7.7974l0,0H34.0919c-4.306,0.0011-7.7987-3.4889-7.7996-7.7953
			c0-0.0008,0-0.0015,0-0.0021V15.304c0.0009-4.3068,3.4926-7.7976,7.7996-7.7974H66.586L90.3365,30.7197z"/>
		
			<rect id="Rectangle_63_8_" x="65.494" y="42.7724" fill="#FFFFFF" stroke="#083176" stroke-width="0.91" stroke-miterlimit="10" width="7.9748" height="26.593"/>
		
			<rect id="Rectangle_63-2_8_" x="54.326" y="34.0459" fill="#FFFFFF" stroke="#083176" stroke-width="0.91" stroke-miterlimit="10" width="7.9748" height="35.3195"/>
		
			<rect id="Rectangle_63-3_8_" x="43.158" y="25.3195" fill="#FFFFFF" stroke="#083176" stroke-width="0.91" stroke-miterlimit="10" width="7.9748" height="44.044"/>
	</g>
</g>
<g id="Full_Color_Margins" display="none">
	<path display="inline" fill="#D0D2D3" d="M0-24.83V-25h-10v140h140V-24.83H0z M120,105H0V-14.83h120V105z"/>
</g>
</svg>
