<?xml version="1.0" encoding="utf-8"?>
<!-- Generator: Adobe Illustrator 25.4.1, SVG Export Plug-In . SVG Version: 6.00 Build 0)  -->
<svg version="1.1" xmlns="http://www.w3.org/2000/svg" xmlns:xlink="http://www.w3.org/1999/xlink" x="0px" y="0px" width="120px"
	 height="90px" viewBox="0 0 120 90" enable-background="new 0 0 120 90" xml:space="preserve">
<g id="Layer_3">
</g>
<g id="Full_Color_Icons_120x120">
	<g>
		<g id="Group_383" transform="translate(0.65)">
			<path id="Path_92" fill="#38C6F4" d="M75.5,8.8h-6.7V4.3c0-0.7-0.6-1.3-1.3-1.3c0,0,0,0,0,0H43.6c-0.7,0-1.3,0.6-1.3,1.3
				c0,0,0,0,0,0v4.5h-6.5c-1.4,0-2.6,1.1-2.6,2.6v58.7c0,1.4,1.1,2.6,2.6,2.6h39.6c1.4,0,2.6-1.1,2.6-2.6V11.3
				C78,9.9,76.9,8.8,75.5,8.8C75.5,8.8,75.5,8.8,75.5,8.8z"/>
			<path id="Path_93" fill="none" stroke="#083176" stroke-width="0.91" stroke-miterlimit="10" d="M65.5,12.2h6.7
				c1.4,0,2.6,1.1,2.6,2.6v58.7c0,1.4-1.1,2.6-2.6,2.6H32.7c-1.4,0-2.6-1.1-2.6-2.6V14.7c0-1.4,1.1-2.6,2.6-2.6h6.5"/>
			<path id="Path_94" fill="none" stroke="#083176" stroke-width="0.91" stroke-miterlimit="10" d="M45.4,33.9l2.9,3.9l9.3-11.5"/>
			
				<line id="Line_63" fill="none" stroke="#083176" stroke-width="0.91" stroke-linecap="round" stroke-miterlimit="10" x1="38.2" y1="48.1" x2="63.7" y2="48.1"/>
			
				<line id="Line_64" fill="none" stroke="#083176" stroke-width="0.91" stroke-linecap="round" stroke-miterlimit="10" x1="38.2" y1="54.5" x2="66.3" y2="54.5"/>
			
				<line id="Line_65" fill="none" stroke="#083176" stroke-width="0.91" stroke-linecap="round" stroke-miterlimit="10" x1="38.2" y1="60.8" x2="61.2" y2="60.8"/>
			<path id="Path_546" fill="#FFFFFF" stroke="#FF9E18" stroke-width="0.7" stroke-miterlimit="10" d="M63.9,77.8l18.7-23.6
				c0.5-0.7,1.4-0.8,2-0.3l3.5,2.8c0.6,0.5,0.7,1.5,0.1,2.1L69.6,82.3c-0.1,0.1-0.2,0.3-0.4,0.4l-6,4c-0.6,0.5-1.4,0.3-1.9-0.3
				C61,86,60.9,85.5,61.1,85l2.6-6.8C63.7,78.1,63.8,77.9,63.9,77.8z"/>
		</g>
		<path id="Rectangle_42" fill="none" stroke="#083176" stroke-width="0.91" stroke-miterlimit="10" d="M41.1,6.3h24.2
			c0.7,0,1.2,0.6,1.2,1.2v6.4c0,0.7-0.6,1.2-1.2,1.2H41.1c-0.7,0-1.2-0.6-1.2-1.2V7.5C39.8,6.9,40.4,6.3,41.1,6.3z"/>
	</g>
</g>
<g id="Full_Color_Margins" display="none">
	<path display="inline" fill="#D0D2D3" d="M0-24.8V-25h-10v140h140V-24.8H0z M120,105H0V-14.8h120V105z"/>
</g>
</svg>
