<?xml version="1.0" encoding="utf-8"?>
<!-- Generator: Adobe Illustrator 25.4.1, SVG Export Plug-In . SVG Version: 6.00 Build 0)  -->
<svg version="1.1" id="Layer_1" xmlns="http://www.w3.org/2000/svg" xmlns:xlink="http://www.w3.org/1999/xlink" x="0px" y="0px"
	 width="120px" height="90px" viewBox="0 0 120 90" enable-background="new 0 0 120 90" xml:space="preserve">
<g id="Full_Color_Icons_120x120">
	<g id="Group_1031" transform="translate(-123.542 -185.733)">
		<circle id="Ellipse_8" fill="#38C6F4" cx="194.6585" cy="226.1295" r="36.3117"/>
		
			<circle id="Ellipse_9" fill="none" stroke="#083176" stroke-width="1.0829" stroke-miterlimit="10" cx="189.8727" cy="230.8706" r="36.3117"/>
		
			<line id="Line_35" fill="none" stroke="#083176" stroke-width="1.0829" stroke-miterlimit="10" x1="189.8728" y1="195.1978" x2="189.8728" y2="198.0846"/>
		
			<line id="Line_36" fill="none" stroke="#083176" stroke-width="1.0829" stroke-miterlimit="10" x1="189.8728" y1="263.953" x2="189.8728" y2="266.606"/>
		
			<line id="Line_37" fill="none" stroke="#083176" stroke-width="1.0829" stroke-miterlimit="10" x1="154.1923" y1="230.6955" x2="156.651" y2="230.6955"/>
		
			<line id="Line_39" fill="none" stroke="#083176" stroke-width="1.0829" stroke-miterlimit="10" x1="172.4753" y1="199.4698" x2="173.8107" y2="201.7918"/>
		
			<line id="Line_40" fill="none" stroke="#083176" stroke-width="1.0829" stroke-miterlimit="10" x1="205.2856" y1="259.8906" x2="206.7475" y2="262.477"/>
		
			<line id="Line_41" fill="none" stroke="#083176" stroke-width="1.0829" stroke-miterlimit="10" x1="159.2669" y1="249.1357" x2="161.3703" y2="247.914"/>
		
			<line id="Line_43" fill="none" stroke="#083176" stroke-width="1.0829" stroke-miterlimit="10" x1="159.3538" y1="212.4904" x2="161.3716" y2="213.6814"/>
		
			<line id="Line_45" fill="none" stroke="#083176" stroke-width="1.0829" stroke-miterlimit="10" x1="172.575" y1="262.1716" x2="173.8133" y2="259.9864"/>
		
			<line id="Line_46" fill="none" stroke="#083176" stroke-width="1.0829" stroke-miterlimit="10" x1="205.3814" y1="201.7739" x2="206.6759" y2="199.3932"/>
		
			<line id="Line_47" fill="none" stroke="#083176" stroke-width="1.0829" stroke-miterlimit="10" x1="189.8728" y1="202.6147" x2="189.8728" y2="232.1855"/>
		
			<line id="Line_48" fill="none" stroke="#083176" stroke-width="1.0829" stroke-miterlimit="10" x1="190.5066" y1="231.3485" x2="198.1625" y2="245.4068"/>
		<path id="Path_536" fill="#FFFFFF" d="M143.3058,247.914l16.4262-6.2617l10.5938,15.0588l10.2309,5.4656l-4.6763,7.6795h-8.2798
			L143.3058,247.914z"/>
		<g id="Group_14" transform="translate(134.487 229.234)">
			<path id="Path_18" fill="#083176" d="M5.5806,30.4904h7.8527v2.998H1.8491v-2.267c-0.076-1.1599,0.2739-2.3077,0.984-3.228
				c1.0914-1.1103,2.4225-1.9562,3.8912-2.4727c2.7258-1.1667,3.5781-1.8542,3.5781-2.9992c0-1.099-0.9175-1.7891-2.4037-1.7891
				c-1.5299-0.1328-2.8781,0.9991-3.012,2.529c-0.0077,0.0946-0.0115,0.1904-0.009,0.2862l-3.251-0.2556
				c0.0767-3.1532,2.695-5.6471,5.8482-5.5704c0.0003,0,0.0005,0,0.0008,0c0.1431,0,0.2837,0.0128,0.4243,0.0268
				c3.366,0,5.6777,2.0165,5.6777,4.787c0,2.267-1.4428,3.8235-4.534,5.1742c-2.4945,1.076-2.8842,1.3047-3.182,1.7149
				C5.6423,29.7343,5.5425,30.1129,5.5806,30.4904z"/>
			<path id="Path_19" fill="#083176" d="M22.2023,30.7345h-7.923v-2.998l5.9998-9.6392h5.1998v9.6392h1.9002v2.998h-1.9002v2.7475
				h-3.274L22.2023,30.7345z M22.2023,27.7365v-7.3493h-0.046l-4.6005,7.3493H22.2023z"/>
			<path id="Path_20" fill="#083176" d="M27.9274,33.8258l8.3805-17.6517l1.9923,0.9393L29.9656,34.719L27.9274,33.8258z"/>
			<path id="Path_21" fill="#083176" d="M46.3829,21.1464v-0.0473h-7.785v-2.9992h11.4488v2.7705l-5.9755,12.6168h-3.6855
				L46.3829,21.1464z"/>
		</g>
		
			<line id="Line_38" fill="none" stroke="#083176" stroke-width="1.0829" stroke-miterlimit="10" x1="222.5603" y1="230.6955" x2="225.2733" y2="230.6955"/>
		
			<line id="Line_42" fill="none" stroke="#083176" stroke-width="1.0829" stroke-miterlimit="10" x1="217.7733" y1="213.9012" x2="220.2486" y2="212.3971"/>
		
			<line id="Line_44" fill="none" stroke="#083176" stroke-width="1.0829" stroke-miterlimit="10" x1="217.2877" y1="248.4622" x2="220.1093" y2="250.1286"/>
		<circle id="Ellipse_387" fill="#083176" cx="189.8727" cy="230.6955" r="2.5711"/>
	</g>
</g>
<g id="Full_Color_Margins" display="none">
	<path display="inline" fill="#D0D2D3" d="M0-24.83V-25h-10v140h140V-24.83H0z M120,105H0V-14.83h120V105z"/>
</g>
</svg>
