<svg xmlns="http://www.w3.org/2000/svg" width="64" height="89" viewBox="0 0 64 89">
    <defs>
        <linearGradient id="a" x1="19%" x2="19%" y1="11%" y2="4%">
            <stop offset="0%" stop-color="#784CFB"/>
            <stop offset="100%" stop-color="#2AF4FF"/>
        </linearGradient>
    </defs>
    <g fill="none" fill-rule="evenodd">
        <g fill-rule="nonzero">
            <path fill="#3A3A3A" d="M6.451 69.231h51.055v8.512H6.451z"/>
            <path fill="#3A3A3A" d="M10.352 64.975H0l2.154 4.256L0 73.487h5.737l.037-4.634zM53.61 64.975h10.353l-2.154 4.256 2.154 4.256h-5.737l-.037-4.634zM7.007 54.642c.3.215.475.565.467.934a1.145 1.145 0 0 1-.934 1.159c.32.052.61.218.818.467.2.246.305.556.294.873.015.417-.18.813-.519 1.056a2.336 2.336 0 0 1-1.401.383H3.368v-5.232h2.336a2.2 2.2 0 0 1 1.303.36zm-.761 1.616a.57.57 0 0 0 .22-.467.547.547 0 0 0-.22-.467.967.967 0 0 0-.607-.159H4.373v1.27h1.27a.967.967 0 0 0 .608-.182l-.005.005zm.14 2.22a.598.598 0 0 0 .27-.524.58.58 0 0 0-.27-.505 1.285 1.285 0 0 0-.747-.177H4.373v1.401h1.27c.264.014.526-.057.748-.2l-.005.004zM8.52 54.287h3.836v.873H9.521v1.294h2.54v.874h-2.54v1.317h2.924v.874H8.521zM15.776 55.254a2.485 2.485 0 0 0-.743-.136 1.042 1.042 0 0 0-.57.136.42.42 0 0 0-.21.373.49.49 0 0 0 .145.365c.105.102.228.183.364.238.197.08.398.148.603.206.296.083.587.188.869.313.23.106.43.266.584.467.168.234.252.52.238.808.009.294-.074.583-.238.827-.181.244-.428.432-.71.542-.33.13-.683.194-1.038.187a3.27 3.27 0 0 1-1.196-.23 3.392 3.392 0 0 1-1.018-.607l.42-.85c.26.242.561.436.888.575.294.133.612.204.934.21.23.013.46-.042.66-.159a.528.528 0 0 0 .093-.808 1.088 1.088 0 0 0-.37-.234 7.091 7.091 0 0 0-.612-.2 7.236 7.236 0 0 1-.868-.309 1.504 1.504 0 0 1-.575-.467 1.243 1.243 0 0 1-.238-.794c-.006-.284.08-.562.243-.794.17-.222.395-.395.654-.5.326-.13.676-.194 1.027-.187.34 0 .68.05 1.005.15.313.09.612.225.887.401l-.401.874a3.789 3.789 0 0 0-.827-.397zM17.285 54.287h4.27v.887H19.91v4.345h-1.009v-4.345h-1.616zM28.6 55.296a1.775 1.775 0 0 0-1.655.051 1.677 1.677 0 0 0-.635.64 1.836 1.836 0 0 0 0 1.785c.15.268.37.49.635.644.27.157.577.237.888.234.26-.002.515-.057.752-.164.25-.111.477-.27.668-.467l.589.659a3.083 3.083 0 0 1-.935.663 2.695 2.695 0 0 1-1.107.243 2.738 2.738 0 0 1-1.401-.36 2.658 2.658 0 0 1-1.345-2.34 2.602 2.602 0 0 1 1.364-2.322 2.896 2.896 0 0 1 2.499-.126c.351.14.67.351.934.622l-.598.756a1.967 1.967 0 0 0-.654-.518zM33.79 59.519l-.907-1.546h-1.364v1.541h-1.005v-5.232h2.187a2.336 2.336 0 0 1 1.57.467c.377.336.58.827.55 1.332.011.366-.081.729-.266 1.046-.183.293-.454.52-.775.65l1.15 1.733-1.14.009zm-2.271-2.42H32.7c.31.02.617-.067.869-.248a.897.897 0 0 0 .299-.733.864.864 0 0 0-.3-.72 1.364 1.364 0 0 0-.868-.238h-1.182V57.1zM35.77 54.287h3.835v.873h-2.83v1.294h2.54v.874h-2.54v1.317h2.933v.874h-3.924zM44.436 59.519l-.468-1.107h-2.555l-.467 1.107h-1.032l2.293-5.232h1.037l2.266 5.232h-1.074zm-2.663-1.967h1.84l-.934-2.195-.906 2.195zM44.884 54.287h4.27v.887h-1.63v4.345h-1.01v-4.345h-1.63zM49.71 54.287h1v5.232h-1zM51.223 54.287h1.075l1.541 4.12 1.556-4.12h1.032l-2.092 5.232h-1.037zM56.937 54.287h3.835v.873h-2.845v1.294h2.541v.874h-2.541v1.317h2.924v.874h-3.924zM17.518 66.947l-.467-1.108h-2.57l-.466 1.108h-1.019l2.294-5.232h1.06l2.266 5.232h-1.098zm-2.663-1.967h1.841l-.934-2.196-.907 2.196zM22.498 64.345h.86v1.99a3.49 3.49 0 0 1-.972.495 3.396 3.396 0 0 1-1.098.191c-.49.005-.974-.119-1.401-.36a2.681 2.681 0 0 1-1-.976 2.62 2.62 0 0 1-.364-1.364 2.541 2.541 0 0 1 .373-1.355 2.69 2.69 0 0 1 1.019-.962c.438-.238.93-.36 1.43-.355.377 0 .752.068 1.106.201.343.124.66.311.935.551l-.57.738c-.2-.189-.435-.338-.692-.439a2.112 2.112 0 0 0-.79-.159 1.808 1.808 0 0 0-.905.234 1.79 1.79 0 0 0 .939 3.335c.191 0 .381-.029.565-.084.198-.057.388-.138.565-.243v-1.438zM24.38 61.715h3.836v.873H25.38v1.294h2.542v.874H25.38v1.336h2.925v.873H24.38zM32.818 61.715h.971v5.232h-.934l-2.69-3.602v3.602h-.982v-5.232h.934l2.7 3.61zM38.064 62.724a1.77 1.77 0 0 0-1.654.056 1.682 1.682 0 0 0-.635.64 1.836 1.836 0 0 0 0 1.784c.15.268.37.49.635.645.27.156.576.237.888.233.259-.001.515-.057.752-.163.25-.112.477-.27.668-.467l.588.64a3.083 3.083 0 0 1-.934.663 2.7 2.7 0 0 1-1.107.243 2.733 2.733 0 0 1-1.402-.36 2.663 2.663 0 0 1-1.345-2.34 2.602 2.602 0 0 1 1.364-2.322 2.896 2.896 0 0 1 2.5-.126c.35.14.67.35.934.621l-.584.734a1.967 1.967 0 0 0-.668-.481zM39.979 61.715h1v5.232h-1zM42.119 61.715h3.835v.873h-2.836v1.294h2.542v.874h-2.542v1.336h2.925v.873h-3.924zM49.373 62.677a2.49 2.49 0 0 0-.742-.136 1.042 1.042 0 0 0-.57.136.42.42 0 0 0-.21.374.49.49 0 0 0 .144.364c.105.102.23.183.365.238.197.08.398.149.602.206.297.084.587.188.87.313.227.106.426.266.579.467.168.235.252.52.238.808.005.297-.085.589-.257.832-.18.244-.427.432-.71.541-.33.13-.683.194-1.037.187a3.27 3.27 0 0 1-1.196-.229 3.392 3.392 0 0 1-1.019-.607l.42-.85c.261.242.561.436.888.575.294.133.612.204.935.21.23.013.46-.042.658-.16a.528.528 0 0 0 .094-.807 1.084 1.084 0 0 0-.37-.234 7.091 7.091 0 0 0-.611-.2 7.278 7.278 0 0 1-.87-.309 1.509 1.509 0 0 1-.574-.467 1.247 1.247 0 0 1-.238-.794c-.006-.284.08-.562.243-.795.175-.237.413-.42.687-.527.326-.13.676-.194 1.027-.187.34 0 .68.05 1.005.15.313.09.612.225.887.401l-.401.874a3.784 3.784 0 0 0-.837-.374z"/>
            <path fill="#FFF" d="M11.632 71.96c.27.142.495.357.65.62.158.276.239.59.233.907.005.316-.078.628-.238.901-.158.264-.386.48-.659.622a1.99 1.99 0 0 1-.934.224H9.236V71.73h1.457c.327-.003.65.076.94.23zm-.35 2.54c.17-.096.309-.239.402-.41a1.294 1.294 0 0 0 0-1.201 1.065 1.065 0 0 0-.412-.416c-.18-.1-.382-.152-.588-.15h-.78v2.336h.798c.204 0 .404-.055.58-.159zM13.08 71.735h2.57v.584h-1.878v.864h1.7v.584h-1.7v.883h1.957v.584H13.08zM18.06 72.384a1.658 1.658 0 0 0-.5-.088.691.691 0 0 0-.378.088.28.28 0 0 0-.14.253.327.327 0 0 0 .098.242c.07.069.152.123.243.16.131.052.265.097.402.135.199.056.394.126.583.21.153.07.286.176.388.308a.855.855 0 0 1 .159.542.934.934 0 0 1-.173.56c-.119.163-.28.29-.467.365-.22.087-.455.13-.691.126-.274 0-.545-.053-.8-.154a2.266 2.266 0 0 1-.681-.406l.28-.57c.175.161.378.291.598.383.194.088.404.135.617.14a.785.785 0 0 0 .439-.107.355.355 0 0 0 .06-.542.724.724 0 0 0-.247-.16c-.1-.04-.237-.085-.411-.135a4.872 4.872 0 0 1-.58-.205 1.009 1.009 0 0 1-.383-.304.836.836 0 0 1-.158-.532.892.892 0 0 1 .163-.533c.119-.16.281-.283.467-.355a1.77 1.77 0 0 1 .687-.126 2.336 2.336 0 0 1 1.266.369l-.29.584a2.546 2.546 0 0 0-.55-.248zM19.555 71.735h.673v3.504h-.673zM23.46 73.5h.584v1.332a2.336 2.336 0 0 1-.649.332 2.275 2.275 0 0 1-.733.126 1.869 1.869 0 0 1-.935-.238 1.794 1.794 0 0 1-.668-.654 1.756 1.756 0 0 1-.243-.935c-.002-.32.085-.633.253-.906.166-.271.402-.493.682-.645.293-.16.623-.241.957-.238.254 0 .506.046.743.136.232.082.445.207.63.369l-.378.495a1.434 1.434 0 0 0-.467-.294 1.401 1.401 0 0 0-.528-.108 1.196 1.196 0 0 0-1.042 1.799 1.2 1.2 0 0 0 1.047.598c.128-.001.256-.02.378-.056.133-.04.26-.094.379-.164l-.01-.948zM27.263 71.735h.65v3.504h-.631l-1.803-2.41v2.41h-.654v-3.504h.635l1.808 2.415zM30.968 75.239l-.603-1.033h-.934v1.033h-.654v-3.504h1.462c.376-.025.75.086 1.05.313.254.225.39.554.37.892.007.246-.054.488-.178.7a1.088 1.088 0 0 1-.518.435l.77 1.159-.765.005zm-1.537-1.621h.79a.892.892 0 0 0 .578-.164.598.598 0 0 0 .201-.49.58.58 0 0 0-.2-.468.934.934 0 0 0-.58-.158h-.79v1.28zM33.233 74.45c.17.16.398.244.63.233a.827.827 0 0 0 .627-.234.897.897 0 0 0 .229-.65v-2.06h.673v2.06c.006.277-.058.55-.187.795-.12.222-.304.403-.528.518-.25.126-.528.189-.808.183a1.761 1.761 0 0 1-.818-.183 1.252 1.252 0 0 1-.532-.518 1.621 1.621 0 0 1-.187-.794v-2.06h.672v2.06a.878.878 0 0 0 .23.65zM37.84 72.384a1.658 1.658 0 0 0-.5-.088.696.696 0 0 0-.379.088.28.28 0 0 0-.14.253.332.332 0 0 0 .098.242c.07.068.153.122.243.16.131.052.266.097.402.135.2.056.394.126.584.21.152.07.285.176.387.308a.85.85 0 0 1 .16.542.934.934 0 0 1-.174.56c-.118.163-.28.29-.467.365-.22.087-.455.13-.691.126-.274 0-.545-.053-.799-.154a2.27 2.27 0 0 1-.682-.406l.28-.57c.176.162.378.291.598.383.194.088.404.135.617.14a.785.785 0 0 0 .44-.107.355.355 0 0 0 .022-.538.724.724 0 0 0-.247-.158c-.1-.041-.237-.086-.411-.136a4.886 4.886 0 0 1-.58-.206 1.014 1.014 0 0 1-.383-.303.836.836 0 0 1-.158-.533.892.892 0 0 1 .163-.532c.119-.16.28-.284.467-.355.218-.082.45-.12.682-.112a2.336 2.336 0 0 1 1.266.369l-.257.565a2.55 2.55 0 0 0-.542-.248zM39.32 71.735h.673v1.495h1.747v-1.495h.673v3.504h-.673v-1.402h-1.747v1.402h-.673zM43.655 74.664a.35.35 0 0 1 .099.257.37.37 0 0 1-.099.262.327.327 0 0 1-.247.102.318.318 0 0 1-.243-.102.37.37 0 0 1-.098-.262.35.35 0 0 1 .098-.257.327.327 0 0 1 .243-.098.332.332 0 0 1 .247.098zM45.515 73.099a.687.687 0 0 0-.528.22.813.813 0 0 0-.201.57.827.827 0 0 0 .2.611.682.682 0 0 0 .529.22.85.85 0 0 0 .72-.313l.406.336a1.182 1.182 0 0 1-.468.402c-.215.098-.45.145-.686.14a1.43 1.43 0 0 1-.701-.168 1.196 1.196 0 0 1-.467-.467c-.221-.441-.221-.96 0-1.401a1.21 1.21 0 0 1 .467-.468c.218-.116.463-.174.71-.168.225-.004.447.039.654.126.184.08.345.206.467.365l-.397.373a.906.906 0 0 0-.705-.378zM49.01 72.711c.205.106.376.268.494.467.121.217.183.462.178.71.005.25-.056.497-.178.715-.118.2-.29.361-.495.467a1.532 1.532 0 0 1-.733.169 1.556 1.556 0 0 1-.743-.169 1.224 1.224 0 0 1-.5-.467 1.401 1.401 0 0 1-.178-.714 1.401 1.401 0 0 1 .178-.71c.119-.2.292-.363.5-.468a1.55 1.55 0 0 1 .743-.168c.254-.006.506.052.733.168zm-1.286.612a.934.934 0 0 0 0 1.173.72.72 0 0 0 .552.224.705.705 0 0 0 .542-.224.934.934 0 0 0 0-1.173.705.705 0 0 0-.542-.224.72.72 0 0 0-.552.224zM54.47 72.814c.182.207.276.477.262.752v1.673h-.654v-1.481a.617.617 0 0 0-.16-.467.565.565 0 0 0-.429-.164.645.645 0 0 0-.495.224.813.813 0 0 0-.182.547v1.322h-.654v-1.481a.626.626 0 0 0-.154-.467.56.56 0 0 0-.426-.164.65.65 0 0 0-.5.225.813.813 0 0 0-.182.546v1.322h-.649v-2.677h.673v.496a1.112 1.112 0 0 1 1.527-.355c.16.114.277.278.332.467a.99.99 0 0 1 .995-.64c.267.003.52.12.696.322z"/>
            <path fill="#3A3A3A" d="M31.981 32.457a.467.467 0 0 0-.07-.042l-.383-.28-.042-.029-11.212-7.983a.785.785 0 0 1-.112-.08l-.177-.121a1.08 1.08 0 0 1-.112-.07l-.164-.112-3.176-2.261 6.343.934c.221.023.44.07.65.14a.85.85 0 0 1 .299.089c.204.065.403.143.598.233.16.074.317.158.467.253.108.053.208.121.299.2.08.048.156.102.229.16.121.102.238.19.34.289.261.254.499.53.71.827l5 7.115.041.06.472.678z"/>
            <path fill="#3A3A3A" d="M31.981 32.457l.467-.673.043-.06 5.026-7.144a5.293 5.293 0 0 1 3.592-2.195l1.818-.271 4.671-.654-15.103 10.632-.514.365z"/>
            <path fill="#3A3A3A" d="M31.981 43.453l-.467-.682-.042-.06L16.523 21.46l3.177 2.26.565.384 11.212 7.984.042.028.383.28a.467.467 0 0 1 .07.042l.514-.36 15.08-10.627-15.07 21.26-.043.06-.472.682z"/>
            <path fill="#3A3A3A" d="M32.014 28.883l-.51-.715-.037-.06-3.662-5.19 3.662.775.038.01.509.102.444-.112.037-.01 3.55-.854-3.55 5.33-.037.06z"/>
            <path fill="#3A3A3A" d="M31.981 32.457l15.594-10.992-4.658.654zM31.981 43.453l-.467-.682-.042-.06L16.523 21.46l6.344.934c.221.023.439.07.65.14a.85.85 0 0 1 .298.09c.204.065.404.143.598.233.162.073.318.158.468.252.107.054.208.121.299.2.08.049.156.102.228.16.122.102.239.191.341.29.266.248.508.52.725.812l4.993 7.148.042.06.468.673.004 11.001z" opacity=".2"/>
            <path fill="#3A3A3A" d="M16.514 21.46s13.384 9.049 15.467 10.997A181.32 181.32 0 0 1 16.514 21.46z"/>
            <path fill="#3A3A3A" d="M32.014 28.883l-.51-.715-.037-.06-3.662-5.19 3.662.775.038.01.509.102z" opacity=".2"/>
            <path fill="#3A3A3A" d="M31.981 43.453l-.252-1.345a7.1 7.1 0 0 1-.187-1.616v-5.139a7.1 7.1 0 0 1 .201-1.668l.238-1.228.365 1.247a7.1 7.1 0 0 1 .2 1.668v5.138a7.1 7.1 0 0 1-.186 1.617l-.379 1.326zM34.43 6.44c0 4.13-7.288 6.378-7.288 10.82a6.208 6.208 0 0 0 .63 3.05s-2.775-2.657-2.775-5.488c0-2.831 2.668-7.096 2.668-7.096 0 1.92.77 2.447 1.555 2.532h.234c.86 0 1.336-.654 1.336-1.565 0-.911-1.037-1.897-1.037-3.738 0-1.84 2.284-4.732 2.284-4.732a9.913 9.913 0 0 1 2.392 6.218z"/>
            <path fill="#3A3A3A" d="M32.388 21.633a3.994 3.994 0 0 1-3.98-4.078c0-4.892 6.787-5.293 6.787-11.894.187.252 2.028 2.826 2.028 5.437 0 3.369-3.111 4.172-3.111 5.807 0 .63.35 1.08 1.214 1.08a.934.934 0 0 0 .28-.052 5.073 5.073 0 0 0 3.098-4.447s.925 8.147-6.316 8.147z"/>
            <path fill="#3A3A3A" d="M35.345 18.003a.934.934 0 0 0 .28-.051c-.934.355-4.49 1.088-4.49-1.37 0-3.036 5.233-3.652 5.233-6.278a10.483 10.483 0 0 0-1.154-4.63c.187.253 2.027 2.827 2.027 5.438 0 3.369-3.11 4.172-3.11 5.807-.005.636.345 1.084 1.214 1.084z"/>
            <path fill="url(#a)" d="M35.443 17.753h.062l.11-.039a.955.955 0 0 1-.172.039z" transform="translate(0 .223)"/>
            <path fill="#3A3A3A" d="M31.495 16.573c0-3.036 5.233-3.653 5.233-6.278a9.927 9.927 0 0 0-.412-2.756A12.398 12.398 0 0 0 35.22 5.67a10.483 10.483 0 0 1 1.154 4.63c0 2.625-5.233 3.242-5.233 6.278 0 1.453 1.243 1.79 2.453 1.747-1.088-.028-2.098-.43-2.098-1.752zM32.472 8.165c0 2.364-3.013 2.153-3.233 2.093h.234c.86 0 1.336-.654 1.336-1.565 0-.911-1.037-1.897-1.037-3.738 0-1.84 2.265-4.732 2.265-4.732a8.147 8.147 0 0 0-1.182 3.906c0 2.05 1.617 2.204 1.617 4.036z"/>
            <path fill="#3A3A3A" d="M30.855 4.129A8.147 8.147 0 0 1 32.037.223c-.359.467-.694.952-1.004 1.453a7.11 7.11 0 0 0-.467 2.453c0 2.055 1.616 2.21 1.616 4.04 0 1.757-1.663 2.093-2.611 2.126.827.028 2.91-.154 2.91-2.126-.01-1.836-1.626-1.99-1.626-4.04zM31.981 50.53l-2.093 1.524.795-2.485-2.08-1.463h2.528l.85-2.56.85 2.56h2.528L33.28 49.57l.794 2.485z"/>
            <path fill="#3A3A3A" d="M31.981 45.967l.72 2.093.06.182h2.2l-1.653 1.163-.159.112.06.187.64 2.009-1.685-1.229-.155-.112-.154.112-1.686 1.229.64-2.009.06-.187-.158-.112-1.654-1.163h2.2l.061-.182.696-2.093h-.033zm.033-.836l-.934 2.85h-2.85l2.336 1.644-.888 2.802 2.336-1.71 2.336 1.71-.888-2.802 2.336-1.645h-2.85l-.934-2.85zM42.829 50.53l-2.093 1.524.794-2.485-2.079-1.463h2.527l.85-2.56.856 2.56h2.522l-2.079 1.463.794 2.485z"/>
            <path fill="#3A3A3A" d="M42.829 45.967l.696 2.093.06.182h2.196l-1.654 1.163-.159.112.061.187.64 2.009-1.69-1.234-.155-.112-.154.112-1.687 1.23.64-2.01.061-.187-.159-.112-1.653-1.163h2.2l.06-.182.697-2.093v.005zm0-.841l-.935 2.85h-2.85l2.336 1.644-.887 2.803 2.336-1.71 2.335 1.71-.887-2.803 2.336-1.644h-2.85l-.934-2.85zM21.134 50.53l-2.093 1.524.794-2.485-2.079-1.463h2.523l.855-2.56.85 2.56h2.528l-2.08 1.463.795 2.485z"/>
            <path fill="#3A3A3A" d="M21.134 45.967l.696 2.093.06.182h2.201L22.423 49.4l-.158.112.06.187.64 2.01-1.686-1.23-.154-.112-.154.112-1.687 1.23.64-2.01.06-.187-.158-.112-1.654-1.163h2.2l.061-.182.696-2.093.005.005zm-.005-.841l-.934 2.85h-2.85l2.336 1.644-.887 2.803 2.335-1.71 2.336 1.71-.887-2.803 2.335-1.644h-2.85l-.934-2.85zM10.287 50.53l-2.093 1.524.794-2.485-2.079-1.463h2.523l.855-2.56.85 2.56h2.523l-2.075 1.463.79 2.485z"/>
            <path fill="#3A3A3A" d="M10.277 45.967l.696 2.093.061.182h2.2l-1.653 1.163-.16.112.062.187.64 2.009-1.687-1.229-.154-.112-.154.112-1.687 1.229.64-2.009.061-.187-.159-.112-1.653-1.163h2.2l.06-.182.687-2.093zm0-.841l-.934 2.85h-2.85L8.83 49.62l-.887 2.803 2.335-1.747 2.336 1.71-.887-2.803 2.335-1.645h-2.85l-.934-2.85v.038zM53.676 50.53l-2.093 1.524.794-2.485-2.074-1.463h2.523l.85-2.56.855 2.56h2.522l-2.078 1.463.794 2.485z"/>
            <path fill="#3A3A3A" d="M53.676 45.967l.696 2.093.06.182h2.201l-1.654 1.163-.159.112.061.187.64 2.009-1.686-1.229-.154-.112-.155.112-1.672 1.224.64-2.009.06-.187-.158-.112-1.654-1.163h2.2l.061-.182.696-2.093-.023.005zm.023-.846l-.934 2.85h-2.85l2.336 1.644-.887 2.803 2.335-1.71 2.336 1.71-.888-2.803 2.336-1.644h-2.85l-.934-2.85z"/>
        </g>
        <path fill="#3A3A3A" d="M22.366 87.795v-.886c.149-.132.378-.33.687-.597.31-.267.542-.469.697-.606.154-.138.345-.32.571-.546.227-.227.394-.417.503-.572.281-.401.422-.757.422-1.066 0-.608-.281-.911-.843-.911-.275 0-.49.091-.645.275-.154.183-.235.435-.24.756h-1.17c.006-.67.202-1.18.59-1.53.386-.35.892-.524 1.517-.524.624 0 1.114.177 1.47.533.355.355.533.802.533 1.34 0 .402-.103.774-.31 1.118a6.113 6.113 0 0 1-.3.486c-.098.14-.237.302-.418.486l-.425.43c-.103.103-.26.248-.469.434-.209.186-.354.316-.434.391h2.502v.989h-4.238zm7.311-6.164c1.545 0 2.317 1.038 2.317 3.116 0 2.078-.772 3.116-2.317 3.116-1.544 0-2.317-1.038-2.317-3.116 0-2.078.773-3.116 2.317-3.116zm.005 1.117c-.195 0-.364.037-.508.112a.876.876 0 0 0-.33.284 1.409 1.409 0 0 0-.185.451 3.45 3.45 0 0 0-.09.537 7.478 7.478 0 0 0-.022.61c0 .236.007.44.021.611.015.172.045.351.09.537.046.187.108.339.185.456a.86.86 0 0 0 .331.288c.144.075.313.112.508.112s.364-.037.507-.112a.86.86 0 0 0 .33-.288c.078-.117.14-.27.186-.456a3.45 3.45 0 0 0 .09-.537c.014-.172.021-.375.021-.61s-.007-.439-.021-.61a3.45 3.45 0 0 0-.09-.538 1.409 1.409 0 0 0-.185-.451.876.876 0 0 0-.331-.284 1.085 1.085 0 0 0-.507-.112zm4.006 5.133v-4.995h-.911v-1.11h2.149v6.105h-1.238zm4.092-3.633c.172.198.418.297.74.297.32 0 .567-.09.739-.27.172-.181.258-.435.258-.762 0-.326-.09-.583-.267-.77-.178-.185-.421-.279-.73-.279-.31 0-.554.1-.731.297a1.071 1.071 0 0 0-.267.744c0 .298.086.546.258.743zm.834 2.635c.355 0 .615-.14.778-.42.163-.282.245-.755.245-1.42a1.282 1.282 0 0 1-.537.37c-.232.092-.48.138-.744.138-.59 0-1.07-.17-1.44-.507-.37-.339-.554-.83-.554-1.475 0-.645.189-1.156.567-1.534.378-.379.894-.568 1.547-.568.82 0 1.395.265 1.724.795.33.53.494 1.34.494 2.43 0 1.088-.153 1.892-.46 2.41-.306.52-.872.779-1.697.779-.648 0-1.138-.172-1.47-.516-.333-.344-.513-.774-.542-1.29h1.118c.091.539.415.808.971.808z"/>
        <path fill="#3A3A3A" fill-rule="nonzero" d="M6.914 84.787v-.5h11.963v.5zM45.123 84.787v-.5h11.963v.5z"/>
    </g>
</svg>
