<?xml version="1.0" encoding="UTF-8"?>
<svg width="1041px" height="554px" viewBox="0 0 1041 554" version="1.1" xmlns="http://www.w3.org/2000/svg" xmlns:xlink="http://www.w3.org/1999/xlink">
    <!-- Generator: Sketch 63.1 (92452) - https://sketch.com -->
    <title>Clutch-Best-Practices-Background-Image</title>
    <desc>Created with Sketch.</desc>
    <defs>
        <polygon id="path-1" points="0 0 1041 0 1041 554 0 554"></polygon>
        <polygon id="path-3" points="0 0 1041 0 1041 554 0 554"></polygon>
        <polygon id="path-5" points="0 0 1041 0 1041 554 0 554"></polygon>
        <linearGradient x1="-10.384793%" y1="106.961166%" x2="59.0030837%" y2="49.9019981%" id="linearGradient-7">
            <stop stop-color="#787878" offset="0%"></stop>
            <stop stop-color="#F6F6F6" stop-opacity="0" offset="100%"></stop>
        </linearGradient>
        <polygon id="path-8" points="0 0 1041 0 1041 554 0 554"></polygon>
    </defs>
    <g id="Clutch" stroke="none" stroke-width="1" fill="none" fill-rule="evenodd">
        <g id="Clutch-Best-Practices-Background-Image">
            <g id="a-link" fill="#000000" fill-rule="nonzero">
                <polygon id="a" points="0 0 1041 0 1041 554 0 554"></polygon>
            </g>
            <g id="Clipped">
                <mask id="mask-2" fill="white">
                    <use xlink:href="#path-1"></use>
                </mask>
                <g id="a"></g>
                <g id="Group" opacity="0.45" mask="url(#mask-2)" fill="#FFFFFF" fill-rule="nonzero">
                    <g transform="translate(895.000000, 2.000000)" id="Shape">
                        <path d="M118.56,1.437 C117.972968,0.853356906 117.024378,0.854698617 116.439,1.44 C115.854093,2.02563509 115.854093,2.97436491 116.439,3.56 C117.024378,4.14530138 117.972968,4.14664309 118.56,3.563 C119.146147,2.97553552 119.146147,2.02446448 118.56,1.437 L118.56,1.437 Z M111.556,8.437 C110.970223,7.85315019 110.022121,7.85449311 109.438,8.44 C108.853093,9.02563509 108.853093,9.97436491 109.438,10.56 C110.022121,11.1455069 110.970223,11.1468498 111.556,10.563 C111.839979,10.2821693 111.999784,9.89938677 111.999784,9.5 C111.999784,9.10061323 111.839979,8.71783073 111.556,8.437 L111.556,8.437 Z M103.558,16.437 C103.180448,16.0480559 102.622425,15.8930652 102.098369,16.0315876 C101.574313,16.1701101 101.165761,16.5805932 101.02971,17.1052966 C100.89366,17.63 101.05128,18.1872856 101.442,18.563 C102.031883,19.130229 102.967551,19.1199675 103.544853,18.539938 C104.122154,17.9599085 104.128004,17.0242024 103.558,16.437 L103.558,16.437 Z M95.556,24.437 C94.9702231,23.8531502 94.0221206,23.8544931 93.438,24.44 C92.8530932,25.0256351 92.8530932,25.9743649 93.438,26.56 C94.0221206,27.1455069 94.9702231,27.1468498 95.556,26.563 C95.8399787,26.2821693 95.9997836,25.8993868 95.9997836,25.5 C95.9997836,25.1006132 95.8399787,24.7178307 95.556,24.437 L95.556,24.437 Z M87.563,31.44 C87.1335983,31.0114631 86.4885611,30.8833132 85.9279594,31.1151656 C85.3673578,31.347018 85.00127,31.8933468 85,32.5 C85.0007623,33.1782886 85.4566099,33.7716622 86.111789,33.9472079 C86.7669681,34.1227537 87.4584232,33.8367832 87.7982127,33.2497405 C88.1380021,32.6626978 88.0415619,31.9206813 87.563,31.44 L87.563,31.44 Z M80.561,39.44 C80.1845713,39.0498917 79.6269419,38.8932478 79.1024356,39.0302743 C78.5779293,39.1673007 78.1681707,39.576673 78.0306498,40.1010499 C77.8931288,40.6254268 78.0492468,41.1832036 78.439,41.56 C79.0272993,42.1287421 79.9628671,42.1210564 80.5417431,41.5427259 C81.1206192,40.9643954 81.1291871,40.0288353 80.561,39.44 L80.561,39.44 Z M72.563,47.44 C72.1335983,47.0114631 71.4885611,46.8833132 70.9279594,47.1151656 C70.3673578,47.347018 70.00127,47.8933468 70,48.5 C70.0007623,49.1782886 70.4566099,49.7716622 71.111789,49.9472079 C71.7669681,50.1227537 72.4584232,49.8367832 72.7982127,49.2497405 C73.1380021,48.6626978 73.0415619,47.9206813 72.563,47.44 L72.563,47.44 Z M64.562,55.44 C64.1832985,55.0605838 63.6309477,54.9120237 63.113013,55.0502808 C62.5950782,55.1885379 62.190246,55.5926077 62.0510129,56.1102809 C61.9117797,56.6279542 62.0592984,57.180584 62.438,57.56 C63.0234219,58.1465262 63.9734735,58.1474216 64.5599998,57.5619998 C65.1465262,56.9765781 65.1474217,56.0265264 64.562,55.44 L64.562,55.44 Z M57.56,62.437 C56.9729681,61.8533569 56.0243785,61.8546986 55.439,62.44 C54.8540932,63.0256351 54.8540932,63.9743649 55.439,64.56 C56.0243785,65.1453014 56.9729681,65.1466431 57.56,64.563 C58.1461466,63.9755355 58.1461466,63.0244645 57.56,62.437 L57.56,62.437 Z M49.556,70.437 C48.9702231,69.8531502 48.0221206,69.8544931 47.438,70.44 C46.8530932,71.0256351 46.8530932,71.9743649 47.438,72.56 C48.0221206,73.1455069 48.9702231,73.1468498 49.556,72.563 C49.8399787,72.2821693 49.9997836,71.8993868 49.9997836,71.5 C49.9997836,71.1006132 49.8399787,70.7178307 49.556,70.437 L49.556,70.437 Z M41.558,78.437 C41.1804477,78.0480559 40.6224251,77.8930652 40.0983689,78.0315876 C39.5743128,78.1701101 39.1657605,78.5805932 39.0297104,79.1052966 C38.8936602,79.63 39.0512802,80.1872856 39.442,80.563 C40.0318833,81.130229 40.9675514,81.1199675 41.5448526,80.539938 C42.1221539,79.9599085 42.1280038,79.0242024 41.558,78.437 L41.558,78.437 Z M33.556,85.437 C32.9702231,84.8531502 32.0221206,84.8544931 31.438,85.44 C30.8530932,86.0256351 30.8530932,86.9743649 31.438,87.56 C32.0221206,88.1455069 32.9702231,88.1468498 33.556,87.563 C33.8399787,87.2821693 33.9997836,86.8993868 33.9997836,86.5 C33.9997836,86.1006132 33.8399787,85.7178307 33.556,85.437 L33.556,85.437 Z M103.563,1.44 C103.133598,1.01146307 102.488561,0.883313167 101.927959,1.11516558 C101.367358,1.347018 101.00127,1.89334678 101,2.5 C101.000762,3.1782886 101.45661,3.77166218 102.111789,3.94720792 C102.766968,4.12275366 103.458423,3.83678317 103.798213,3.24974047 C104.138002,2.66269777 104.041562,1.92068125 103.563,1.44 Z M95.56,8.44 C95.1317402,8.00950117 94.4859575,7.88012828 93.9249145,8.11243513 C93.3638716,8.34474199 92.9985734,8.89276557 92.9999958,9.5 C92.9994026,10.1791873 93.4552434,10.7740254 94.1112215,10.9500608 C94.7671996,11.1260962 95.459606,10.8393967 95.7991285,10.2511618 C96.1386509,9.66292696 96.0405566,8.91995948 95.56,8.44 L95.56,8.44 Z M87.56,16.44 C87.1317402,16.0095012 86.4859575,15.8801283 85.9249145,16.1124351 C85.3638716,16.344742 84.9985734,16.8927656 84.9999958,17.5 C84.9994026,18.1791873 85.4552434,18.7740254 86.1112215,18.9500608 C86.7671996,19.1260962 87.459606,18.8393967 87.7991285,18.2511618 C88.1386509,17.662927 88.0405566,16.9199595 87.56,16.44 L87.56,16.44 Z M80.558,24.437 C80.1804477,24.0480559 79.6224251,23.8930652 79.0983689,24.0315876 C78.5743128,24.1701101 78.1657605,24.5805932 78.0297104,25.1052966 C77.8936602,25.63 78.0512802,26.1872856 78.442,26.563 C79.0318833,27.130229 79.9675514,27.1199675 80.5448526,26.539938 C81.1221539,25.9599085 81.1280038,25.0242024 80.558,24.437 L80.558,24.437 Z M72.564,31.44 C72.1346911,31.01075 71.4891909,30.8821467 70.9281524,31.1140894 C70.3671138,31.346032 70.0008679,31.8929079 70,32.5 C70.0012171,33.1779873 70.4570668,33.7708707 71.1119787,33.9462523 C71.7668905,34.1216338 72.4580271,33.8359065 72.7979049,33.2492625 C73.1377828,32.6626184 73.0418947,31.9209208 72.564,31.44 L72.564,31.44 Z M64.564,39.44 C64.1346911,39.01075 63.4891909,38.8821467 62.9281524,39.1140894 C62.3671138,39.346032 62.0008679,39.8929079 62,40.5 C62.0012171,41.1779873 62.4570668,41.7708707 63.1119787,41.9462523 C63.7668905,42.1216338 64.4580271,41.8359065 64.7979049,41.2492625 C65.1377828,40.6626184 65.0418947,39.9209208 64.564,39.44 L64.564,39.44 Z M57.56,47.44 C57.1317402,47.0095012 56.4859575,46.8801283 55.9249145,47.1124351 C55.3638716,47.344742 54.9985734,47.8927656 54.9999958,48.5 C54.9994026,49.1791873 55.4552434,49.7740254 56.1112215,49.9500608 C56.7671996,50.1260962 57.459606,49.8393967 57.7991285,49.2511618 C58.1386509,48.662927 58.0405566,47.9199595 57.56,47.44 L57.56,47.44 Z M49.56,55.44 C49.1317402,55.0095012 48.4859575,54.8801283 47.9249145,55.1124351 C47.3638716,55.344742 46.9985734,55.8927656 46.9999958,56.5 C46.9994026,57.1791873 47.4552434,57.7740254 48.1112215,57.9500608 C48.7671996,58.1260962 49.459606,57.8393967 49.7991285,57.2511618 C50.1386509,56.662927 50.0405566,55.9199595 49.56,55.44 L49.56,55.44 Z M41.556,62.437 C40.9702231,61.8531502 40.0221206,61.8544931 39.438,62.44 C38.8530932,63.0256351 38.8530932,63.9743649 39.438,64.56 C40.0221206,65.1455069 40.9702231,65.1468498 41.556,64.563 C41.8399787,64.2821693 41.9997836,63.8993868 41.9997836,63.5 C41.9997836,63.1006132 41.8399787,62.7178307 41.556,62.437 L41.556,62.437 Z M33.564,70.44 C33.1346911,70.01075 32.4891909,69.8821467 31.9281524,70.1140894 C31.3671138,70.346032 31.0008679,70.8929079 31,71.5 C31.0012171,72.1779873 31.4570668,72.7708707 32.1119787,72.9462523 C32.7668905,73.1216338 33.4580271,72.8359065 33.7979049,72.2492625 C34.1377828,71.6626184 34.0418947,70.9209208 33.564,70.44 L33.564,70.44 Z M26.563,78.44 C26.1335983,78.0114631 25.4885611,77.8833132 24.9279594,78.1151656 C24.3673578,78.347018 24.00127,78.8933468 24,79.5 C24.0007623,80.1782886 24.4566099,80.7716622 25.111789,80.9472079 C25.7669681,81.1227537 26.4584232,80.8367832 26.7982127,80.2497405 C27.1380021,79.6626978 27.0415619,78.9206813 26.563,78.44 L26.563,78.44 Z M18.56,85.44 C18.1317402,85.0095012 17.4859575,84.8801283 16.9249145,85.1124351 C16.3638716,85.344742 15.9985734,85.8927656 15.9999958,86.5 C15.9994026,87.1791873 16.4552434,87.7740254 17.1112215,87.9500608 C17.7671996,88.1260962 18.459606,87.8393967 18.7991285,87.2511618 C19.1386509,86.662927 19.0405566,85.9199595 18.56,85.44 Z M87.56,0.44 C87.1317402,0.00950116818 86.4859575,-0.11987172 85.9249145,0.112435133 C85.3638716,0.344741986 84.9985734,0.892765575 84.9999958,1.5 C84.9994026,2.17918731 85.4552434,2.77402538 86.1112215,2.95006079 C86.7671996,3.1260962 87.459606,2.83939669 87.7991285,2.25116183 C88.1386509,1.66292696 88.0405566,0.919959478 87.56,0.44 L87.56,0.44 Z M80.56,8.44 C80.1317402,8.00950117 79.4859575,7.88012828 78.9249145,8.11243513 C78.3638716,8.34474199 77.9985734,8.89276557 77.9999958,9.5 C77.9994026,10.1791873 78.4552434,10.7740254 79.1112215,10.9500608 C79.7671996,11.1260962 80.459606,10.8393967 80.7991285,10.2511618 C81.1386509,9.66292696 81.0405566,8.91995948 80.56,8.44 L80.56,8.44 Z M72.56,16.44 C72.1317402,16.0095012 71.4859575,15.8801283 70.9249145,16.1124351 C70.3638716,16.344742 69.9985734,16.8927656 69.9999958,17.5 C69.9994026,18.1791873 70.4552434,18.7740254 71.1112215,18.9500608 C71.7671996,19.1260962 72.459606,18.8393967 72.7991285,18.2511618 C73.1386509,17.662927 73.0405566,16.9199595 72.56,16.44 L72.56,16.44 Z M64.564,24.44 C64.1346911,24.01075 63.4891909,23.8821467 62.9281524,24.1140894 C62.3671138,24.346032 62.0008679,24.8929079 62,25.5 C62.0012171,26.1779873 62.4570668,26.7708707 63.1119787,26.9462523 C63.7668905,27.1216338 64.4580271,26.8359065 64.7979049,26.2492625 C65.1377828,25.6626184 65.0418947,24.9209208 64.564,24.44 L64.564,24.44 Z M56.564,31.44 C56.1346911,31.01075 55.4891909,30.8821467 54.9281524,31.1140894 C54.3671138,31.346032 54.0008679,31.8929079 54,32.5 C54.0012171,33.1779873 54.4570668,33.7708707 55.1119787,33.9462523 C55.7668905,34.1216338 56.4580271,33.8359065 56.7979049,33.2492625 C57.1377828,32.6626184 57.0418947,31.9209208 56.564,31.44 L56.564,31.44 Z M49.56,39.44 C49.1317402,39.0095012 48.4859575,38.8801283 47.9249145,39.1124351 C47.3638716,39.344742 46.9985734,39.8927656 46.9999958,40.5 C46.9994026,41.1791873 47.4552434,41.7740254 48.1112215,41.9500608 C48.7671996,42.1260962 49.459606,41.8393967 49.7991285,41.2511618 C50.1386509,40.662927 50.0405566,39.9199595 49.56,39.44 L49.56,39.44 Z M41.56,47.44 C41.1317402,47.0095012 40.4859575,46.8801283 39.9249145,47.1124351 C39.3638716,47.344742 38.9985734,47.8927656 38.9999958,48.5 C38.9994026,49.1791873 39.4552434,49.7740254 40.1112215,49.9500608 C40.7671996,50.1260962 41.459606,49.8393967 41.7991285,49.2511618 C42.1386509,48.662927 42.0405566,47.9199595 41.56,47.44 L41.56,47.44 Z M33.56,54.44 C33.1317402,54.0095012 32.4859575,53.8801283 31.9249145,54.1124351 C31.3638716,54.344742 30.9985734,54.8927656 30.9999958,55.5 C30.9994026,56.1791873 31.4552434,56.7740254 32.1112215,56.9500608 C32.7671996,57.1260962 33.459606,56.8393967 33.7991285,56.2511618 C34.1386509,55.662927 34.0405566,54.9199595 33.56,54.44 L33.56,54.44 Z M26.564,62.44 C26.1346911,62.01075 25.4891909,61.8821467 24.9281524,62.1140894 C24.3671138,62.346032 24.0008679,62.8929079 24,63.5 C24.0012171,64.1779873 24.4570668,64.7708707 25.1119787,64.9462523 C25.7668905,65.1216338 26.4580271,64.8359065 26.7979049,64.2492625 C27.1377828,63.6626184 27.0418947,62.9209208 26.564,62.44 L26.564,62.44 Z M18.564,70.44 C18.1346911,70.01075 17.4891909,69.8821467 16.9281524,70.1140894 C16.3671138,70.346032 16.0008679,70.8929079 16,71.5 C16.0012171,72.1779873 16.4570668,72.7708707 17.1119787,72.9462523 C17.7668905,73.1216338 18.4580271,72.8359065 18.7979049,72.2492625 C19.1377828,71.6626184 19.0418947,70.9209208 18.564,70.44 L18.564,70.44 Z M10.56,78.44 C10.1317402,78.0095012 9.48595751,77.8801283 8.92491455,78.1124351 C8.36387158,78.344742 7.99857335,78.8927656 7.99999584,79.5 C7.99940261,80.1791873 8.45524341,80.7740254 9.11122153,80.9500608 C9.76719964,81.1260962 10.459606,80.8393967 10.7991285,80.2511618 C11.1386509,79.662927 11.0405566,78.9199595 10.56,78.44 L10.56,78.44 Z M2.56,85.44 C2.13174022,85.0095012 1.48595751,84.8801283 0.924914547,85.1124351 C0.363871582,85.344742 -0.00142664757,85.8927656 -4.16375963e-06,86.5 C-0.000597392287,87.1791873 0.455243412,87.7740254 1.11122153,87.9500608 C1.76719964,88.1260962 2.459606,87.8393967 2.79912846,87.2511618 C3.13865092,86.662927 3.04055661,85.9199595 2.56,85.44 L2.56,85.44 Z"></path>
                    </g>
                </g>
            </g>
            <g id="Clipped">
                <mask id="mask-4" fill="white">
                    <use xlink:href="#path-3"></use>
                </mask>
                <g id="a"></g>
                <g id="Group" opacity="0.35" mask="url(#mask-4)" fill="#FFFFFF" fill-rule="nonzero">
                    <g transform="translate(396.000000, 346.000000)" id="Shape">
                        <path d="M623.98,0.96 L88.98,535.96 L87.75,535.96 L622.75,0.96 L623.98,0.96 Z M614.23,0.96 L79.22,535.96 L78,535.96 L613.01,0.96 L614.23,0.96 Z M604.47,0.96 L69.48,535.96 L68.26,535.96 L603.26,0.96 L604.47,0.96 Z M594.73,0.96 L59.73,535.96 L58.5,535.96 L593.5,0.96 L594.73,0.96 Z M584.97,0.96 L49.97,535.96 L48.76,535.96 L583.76,0.96 L584.97,0.96 Z M575.22,0.96 L40.22,535.96 L39.01,535.96 L574.01,0.96 L575.22,0.96 Z M565.48,0.96 L30.48,535.96 L29.25,535.96 L564.25,0.96 L565.48,0.96 Z M555.72,0.96 L20.72,535.96 L19.5,535.96 L554.51,0.96 L555.72,0.96 Z M545.97,0.96 L10.98,535.96 L9.76,535.96 L544.75,0.96 L545.97,0.96 Z M536.23,0.96 L1.23,535.96 L0,535.96 L535,0.96 L536.23,0.96 Z"></path>
                    </g>
                </g>
            </g>
            <g id="Clipped">
                <mask id="mask-6" fill="white">
                    <use xlink:href="#path-5"></use>
                </mask>
                <g id="a"></g>
                <polygon id="Path" fill="url(#linearGradient-7)" fill-rule="nonzero" opacity="0.511137463" mask="url(#mask-6)" transform="translate(125.635000, 410.000000) rotate(-4.000000) translate(-125.635000, -410.000000) " points="28.54 686 461.27 253.27 342 134 -210 686"></polygon>
            </g>
            <g id="Clipped">
                <mask id="mask-9" fill="white">
                    <use xlink:href="#path-8"></use>
                </mask>
                <g id="a"></g>
                <g id="Group" opacity="0.116806176" mask="url(#mask-9)" fill-rule="nonzero">
                    <g transform="translate(-9.000000, 11.000000)" id="Path">
                        <polygon fill="#E9EDF2" points="134.122 126.973 74.666 158.32 0.558 109.804 60 78.45"></polygon>
                        <polygon fill="#DADADA" points="0.359 110.538 25.039 32.053 84.417 1.282 60.105 78.682"></polygon>
                        <polygon fill="#FFFFFF" points="134.123 127.466 60.468 78.315 84.556 0.312 158.575 48.7"></polygon>
                    </g>
                </g>
            </g>
        </g>
    </g>
</svg>