<svg xmlns="http://www.w3.org/2000/svg" width="118" height="128" viewBox="0 0 118 128">
    <g fill="none" fill-rule="evenodd">
        <path fill="#747474" fill-rule="nonzero" d="M58.45 1.67L1.604 32.28v62.267l56.848 31.704 57.946-31.706V32.283L58.451 1.669zm58.947 30.01v63.457l-58.95 32.257L.602 95.134V31.684L58.446.536l58.951 31.144z"/>
        <path fill="#4C4C4C" fill-rule="nonzero" d="M59.11 11.18L10.513 37.349v52.8L59.11 117.25l49.58-27.128V37.374L59.11 11.181zm-.023-5.666l54.603 28.847v58.724l-54.603 29.878L5.514 93.085V34.361L59.087 5.514z"/>
        <path fill="#747474" fill-rule="nonzero" d="M59.105 10.047L9.514 36.75v53.986l49.591 27.657 50.585-27.679V36.772L59.105 10.047zm-.018-4.533l54.603 28.847v58.724l-54.603 29.878L5.514 93.085V34.361L59.087 5.514z"/>
        <path fill="#282828" fill-rule="nonzero" d="M5.514 46.318h5v35.29h-5z"/>
        <path fill="#282828" fill-rule="nonzero" d="M10.028 49.626h99v28.673h-99z"/>
        <path fill-rule="nonzero" stroke="#8C8C8C" stroke-linecap="square" d="M19.85 46.318h79.402M19.85 81.607h79.402"/>
        <path fill="#282828" fill-rule="nonzero" d="M109.075 46.318h4.5v35.29h-4.5z"/>
        <g fill-rule="nonzero">
            <path fill="#FFF" d="M46.592 56.243h2.556v15.978h-2.556zM58.097 67.124c0 2.445-2.056 2.64-2.668 2.64-1.528 0-1.806-1.43-1.806-2.293v-6.115h-2.557v6.102c0 1.515.476 2.765 1.31 3.599.735.737 1.839 1.14 3.034 1.14.847 0 2.047-.265 2.687-.848v.872h2.556V61.356h-2.556v5.768zM65.766 57.521H63.21v3.835h-1.918v2.556h1.918v8.31h2.556v-8.31h1.917v-2.556h-1.917zM75.735 68.972c-.557.5-1.292.778-2.099.778-1.778 0-3.084-1.305-3.084-3.098s1.265-3.044 3.084-3.044c.793 0 1.542.264 2.113.765l.388.333 1.723-1.723-.431-.389c-1.014-.916-2.361-1.43-3.793-1.43-3.196 0-5.517 2.306-5.517 5.474 0 3.155 2.377 5.543 5.517 5.543 1.459 0 2.82-.513 3.821-1.444l.417-.39-1.75-1.721-.39.346zM86.985 62.303c-.736-.736-1.6-1.139-2.794-1.139-.848 0-1.808.264-2.447.847v-5.768h-2.556v15.978h2.556v-5.985c0-2.446 1.737-2.64 2.349-2.64 1.528 0 1.486 1.431 1.486 2.293v6.332h2.556v-6.319c0-1.515-.316-2.765-1.15-3.599"/>
            <path fill="#A0A0A0" d="M73.552 64.832a1.848 1.848 0 1 1 .002 3.695 1.848 1.848 0 0 1-.002-3.695"/>
            <path fill="#FFF" d="M43.013 68.208a5.104 5.104 0 0 1-3.682 1.542c-2.848 0-4.918-2.237-4.918-5.307 0-3.084 2.07-5.321 4.918-5.321 1.376 0 2.682.54 3.669 1.528l.388.389 1.71-1.709-.376-.39c-1.417-1.458-3.334-2.25-5.39-2.25-4.197 0-7.35 3.335-7.35 7.766 0 4.419 3.167 7.74 7.35 7.74 2.07 0 3.987-.806 5.404-2.265l.375-.39-1.694-1.736-.404.403z"/>
        </g>
        <path fill="#3A3A3A" d="M55.25 28.673h-.771v-4.061h-1.39v-.663h3.551v.663h-1.39v4.06zm6.616-2.368c0 .769-.192 1.366-.577 1.793-.384.426-.929.64-1.633.64-.713 0-1.26-.212-1.643-.635-.382-.424-.573-1.025-.573-1.805s.192-1.378.576-1.796c.385-.418.934-.627 1.647-.627.702 0 1.245.212 1.628.637.383.424.575 1.022.575 1.793zm-3.606 0c0 .581.118 1.022.353 1.323.234.3.582.45 1.043.45.459 0 .805-.148 1.039-.445.234-.298.35-.74.35-1.328 0-.58-.115-1.02-.347-1.319-.232-.299-.577-.449-1.035-.449-.464 0-.813.15-1.049.45-.236.299-.354.738-.354 1.318zm8.19-.928c0 .494-.162.872-.486 1.134-.323.263-.782.395-1.38.395h-.49v1.767h-.772v-4.724h1.36c.59 0 1.032.121 1.326.362.294.241.441.597.441 1.066zm-2.356.88h.41c.396 0 .687-.07.872-.208.186-.137.278-.353.278-.646 0-.271-.083-.474-.248-.607-.166-.134-.425-.2-.776-.2h-.536v1.66zm-32.087 9.622a9.34 9.34 0 0 1-.103.526c-.049.22-.089.384-.121.492L31 39.7h-.84l-.61-2.365-.621-2.359h.788l.675 2.753c.106.442.181.832.227 1.17a8.08 8.08 0 0 1 .106-.614c.048-.226.09-.41.13-.55l.768-2.759h.766l.788 2.772c.076.257.156.64.24 1.15.032-.307.11-.7.232-1.175l.672-2.747h.782l-1.23 4.724h-.84l-.802-2.817c-.035-.123-.078-.3-.13-.532a5.765 5.765 0 0 1-.093-.483l-.002.01zm6.879 3.822h-2.672v-4.724h2.672v.653h-1.9v1.286h1.78v.646h-1.78v1.483h1.9v.656zm1.462-4.724h1.402c.65 0 1.12.095 1.41.285.29.19.435.489.435.898 0 .276-.071.505-.213.688-.142.183-.347.298-.614.346v.032c.332.063.576.186.732.37.156.184.234.433.234.748 0 .424-.148.757-.444.997-.296.24-.708.36-1.236.36h-1.706v-4.724zm.772 1.952h.743c.323 0 .56-.051.708-.154.148-.102.223-.276.223-.521 0-.222-.08-.383-.241-.482-.16-.099-.415-.148-.764-.148h-.669v1.305zm0 .627v1.496h.82c.324 0 .568-.062.733-.186.164-.124.247-.32.247-.587 0-.245-.084-.427-.252-.546-.168-.118-.424-.177-.766-.177h-.782zm10.039-.262c0 .78-.217 1.376-.65 1.788-.433.413-1.056.619-1.87.619h-1.322v-4.724h1.46c.752 0 1.337.203 1.755.608.418.405.627.974.627 1.709zm-.815.026c0-1.131-.528-1.696-1.586-1.696h-.669v3.428h.55c1.137 0 1.705-.578 1.705-1.732zm4.942 2.38h-2.672v-4.723h2.672v.653h-1.9v1.286h1.78v.646h-1.78v1.483h1.9v.656zm4.154-4.723h.8l-1.653 4.724h-.815l-1.647-4.724h.795l.985 2.937c.052.14.107.32.165.541.058.221.096.385.113.493.028-.164.07-.353.129-.568.058-.216.106-.375.142-.479l.986-2.924zm4.537 4.724h-2.671v-4.724h2.671v.653h-1.9v1.286h1.78v.646h-1.78v1.483h1.9v.656zm1.463 0v-4.724h.772v4.062h2v.662H65.44zm8.088-2.368c0 .769-.192 1.366-.577 1.793-.384.426-.928.64-1.633.64-.713 0-1.26-.212-1.643-.635-.382-.424-.573-1.025-.573-1.805s.192-1.378.577-1.796c.384-.418.933-.627 1.646-.627.702 0 1.245.212 1.628.637.383.424.575 1.022.575 1.793zm-3.606 0c0 .581.118 1.022.353 1.323.234.3.582.45 1.043.45.459 0 .805-.148 1.039-.445.234-.298.35-.74.35-1.328 0-.58-.115-1.02-.347-1.318-.231-.3-.577-.45-1.035-.45-.463 0-.813.15-1.049.45-.236.299-.354.738-.354 1.318zm8.19-.928c0 .494-.162.872-.485 1.134-.323.263-.783.395-1.38.395h-.491V39.7h-.772v-4.724h1.36c.59 0 1.032.121 1.326.362.294.241.441.597.441 1.066zm-2.356.88h.41c.397 0 .687-.07.873-.208.185-.137.277-.353.277-.646 0-.271-.082-.474-.248-.607-.166-.134-.425-.2-.776-.2h-.536v1.66zm6.412 2.416h-2.672v-4.724h2.672v.653h-1.9v1.286h1.78v.646h-1.78v1.483h1.9v.656zm2.234-2.527h.536c.36 0 .62-.066.782-.2.162-.133.242-.332.242-.594 0-.267-.087-.46-.261-.575-.175-.117-.437-.175-.789-.175h-.51v1.544zm0 .64v1.887h-.772v-4.724h1.334c.61 0 1.06.115 1.354.343.293.228.44.573.44 1.034 0 .588-.307 1.007-.918 1.257l1.334 2.09h-.879l-1.13-1.887h-.763zm6.622.604c0 .42-.152.75-.456.989-.304.239-.722.359-1.257.359-.534 0-.971-.083-1.311-.25v-.73c.215.102.444.182.686.24.243.058.468.087.677.087.306 0 .532-.058.677-.175a.569.569 0 0 0 .218-.468.587.587 0 0 0-.2-.45c-.134-.122-.41-.267-.827-.435-.431-.175-.735-.374-.911-.598a1.265 1.265 0 0 1-.265-.808c0-.394.14-.704.42-.93.28-.226.655-.34 1.127-.34.452 0 .903.1 1.35.298l-.245.63c-.42-.177-.795-.265-1.124-.265-.25 0-.44.054-.569.163a.536.536 0 0 0-.194.431c0 .123.026.228.078.315.052.088.137.17.255.248.119.077.332.18.64.306.347.145.6.28.762.404.162.125.28.266.356.424.075.157.113.342.113.555zM54.608 98.15h-3.202v-.576l1.218-1.224c.36-.368.598-.63.716-.784a1.87 1.87 0 0 0 .257-.434c.054-.136.08-.281.08-.436 0-.214-.064-.382-.192-.504-.128-.123-.305-.184-.531-.184-.181 0-.356.033-.525.1-.17.066-.365.187-.587.362l-.41-.501c.263-.222.518-.38.766-.472.247-.093.511-.139.791-.139.44 0 .792.115 1.057.344.265.23.397.538.397.926 0 .213-.038.416-.115.607-.076.192-.193.39-.352.593-.158.204-.421.479-.79.826l-.82.794v.033h2.242v.669zm4.218-2.362c0 .82-.132 1.43-.396 1.828-.264.399-.667.598-1.21.598-.525 0-.924-.206-1.195-.617-.272-.411-.407-1.014-.407-1.81 0-.833.132-1.447.395-1.842.264-.396.667-.593 1.207-.593.528 0 .927.206 1.199.62.271.414.407 1.019.407 1.816zm-2.44 0c0 .644.067 1.104.2 1.38.132.275.343.413.634.413s.504-.14.638-.42c.135-.28.202-.738.202-1.373 0-.633-.067-1.092-.202-1.375-.134-.283-.347-.425-.638-.425-.29 0-.502.14-.635.417-.132.278-.198.739-.198 1.383zm5.685 2.362h-.759V95.1c0-.364.009-.653.026-.866-.05.051-.11.108-.182.171-.073.062-.314.26-.726.594l-.381-.481 1.39-1.092h.632v4.724zm3.585-4.785c.448 0 .803.102 1.063.308.26.206.391.481.391.826 0 .484-.29.87-.872 1.156.37.186.634.38.79.585.156.205.234.433.234.685 0 .39-.143.702-.43.937-.286.235-.674.352-1.163.352-.512 0-.91-.11-1.192-.33-.282-.22-.423-.53-.423-.933 0-.263.073-.5.221-.71.148-.21.39-.396.725-.56-.288-.172-.494-.354-.617-.546a1.173 1.173 0 0 1-.184-.646c0-.343.135-.616.404-.82.27-.203.62-.304 1.053-.304zm-.875 3.56c0 .224.078.398.236.522.157.124.37.186.64.186.277 0 .493-.064.647-.193a.643.643 0 0 0 .231-.521.668.668 0 0 0-.213-.479c-.142-.144-.358-.277-.646-.4l-.094-.042c-.284.125-.489.262-.614.412a.781.781 0 0 0-.187.515zm.869-2.976c-.216 0-.389.054-.52.16a.53.53 0 0 0-.197.435c0 .112.023.212.07.3a.784.784 0 0 0 .207.241c.09.072.244.159.46.26.258-.114.44-.234.547-.36a.662.662 0 0 0 .16-.441.528.528 0 0 0-.199-.435c-.132-.106-.309-.16-.528-.16z"/>
    </g>
</svg>
