<?xml version="1.0" encoding="UTF-8"?>
<svg width="1366px" height="117px" viewBox="0 0 1366 117" version="1.1" xmlns="http://www.w3.org/2000/svg" xmlns:xlink="http://www.w3.org/1999/xlink">
    <!-- Generator: Sketch 61.2 (89653) - https://sketch.com -->
    <title>top</title>
    <desc>Created with Sketch.</desc>
    <defs>
        <linearGradient x1="66.4993627%" y1="101.892083%" x2="-17.881072%" y2="54.9710813%" id="linearGradient-1">
            <stop stop-color="#D1D1D1" offset="0%"></stop>
            <stop stop-color="#B5B5B5" offset="67%"></stop>
            <stop stop-color="#585858" offset="100%"></stop>
        </linearGradient>
    </defs>
    <g id="Clutch" stroke="none" stroke-width="1" fill="none" fill-rule="evenodd">
        <g id="Homepage-clutch12" transform="translate(0.000000, -731.000000)">
            <g id="Group-23" transform="translate(0.000000, 731.000000)">
                <g id="Group">
                    <g id="top" transform="translate(0.000000, -435.000000)">
                        <polygon id="Path-Copy" fill="url(#linearGradient-1)" fill-rule="nonzero" opacity="0.100000001" points="1251.54 552 1684.27 119.27 1565 0 1013 552"></polygon>
                        <g id="Group" opacity="0.119999997" transform="translate(78.000000, 43.000000)" fill="#000000">
                            <path d="M148.413701,396.582734 C147.63118,395.804169 146.365478,395.805991 145.585205,396.586805 C144.804932,397.36762 144.804932,398.63238 145.585205,399.413195 C146.365478,400.194009 147.63118,400.195831 148.413701,399.417266 C149.195433,398.633876 149.195433,397.366124 148.413701,396.582734 Z" id="Path"></path>
                            <path d="M139.40858,406.582734 C138.627233,405.804169 137.363429,405.805991 136.584327,406.586805 C135.805224,407.36762 135.805224,408.63238 136.584327,409.413195 C137.363429,410.194009 138.627233,410.195831 139.40858,409.417266 C139.787023,409.042901 140,408.532527 140,408 C140,407.467473 139.787023,406.957099 139.40858,406.582734 Z" id="Path"></path>
                            <path d="M129.411154,416.582734 C128.629217,415.804169 127.364459,415.805991 126.584768,416.586805 C125.805077,417.36762 125.805077,418.63238 126.584768,419.413195 C127.364459,420.194009 128.629217,420.195831 129.411154,419.417266 C129.788098,419.041948 130,418.531931 130,418 C130,417.468069 129.788098,416.958052 129.411154,416.582734 Z" id="Path"></path>
                            <path d="M119.40858,425.582734 C118.627233,424.804169 117.363429,424.805991 116.584327,425.586805 C115.805224,426.36762 115.805224,427.63238 116.584327,428.413195 C117.363429,429.194009 118.627233,429.195831 119.40858,428.417266 C119.787023,428.042901 120,427.532527 120,427 C120,426.467473 119.787023,425.957099 119.40858,425.582734 Z" id="Path"></path>
                            <path d="M110.417285,435.586372 C109.844987,435.014074 108.983994,434.842685 108.235903,435.152148 C107.487812,435.461611 107,436.190959 107,437 C107,437.809041 107.487812,438.538389 108.235903,438.847852 C108.983994,439.157315 109.844987,438.985926 110.417285,438.413628 C111.194238,437.631098 111.194238,436.368902 110.417285,435.586372 Z" id="Path"></path>
                            <path d="M100.414758,444.586372 C99.842883,444.014074 98.9825266,443.842685 98.2349888,444.152148 C97.487451,444.461611 97,445.190959 97,446 C97,446.809041 97.487451,447.538389 98.2349888,447.847852 C98.9825266,448.157315 99.842883,447.985926 100.414758,447.413628 C101.195081,446.632727 101.195081,445.367273 100.414758,444.586372 L100.414758,444.586372 Z" id="Path"></path>
                            <path d="M90.4172849,454.586372 C89.8449868,454.014074 88.9839937,453.842685 88.2359027,454.152148 C87.4878117,454.461611 87,455.190959 87,456 C87,456.809041 87.4878117,457.538389 88.2359027,457.847852 C88.9839937,458.157315 89.8449868,457.985926 90.4172849,457.413628 C91.1942384,456.631098 91.1942384,455.368902 90.4172849,454.586372 Z" id="Path"></path>
                            <path d="M81.4162378,464.587855 C80.8446936,464.014688 79.9840089,463.842531 79.2359567,464.151748 C78.4879045,464.460965 78,465.190578 78,466 C78,466.809422 78.4879045,467.539035 79.2359567,467.848252 C79.9840089,468.157469 80.8446936,467.985312 81.4162378,467.412145 C82.1945874,466.631585 82.1945874,465.368415 81.4162378,464.587855 L81.4162378,464.587855 Z" id="Path"></path>
                            <path d="M71.4137007,473.582734 C70.6311797,472.804169 69.3654776,472.805991 68.5852047,473.586805 C67.8049318,474.36762 67.8049318,475.63238 68.5852047,476.413195 C69.3654776,477.194009 70.6311797,477.195831 71.4137007,476.417266 C72.1954331,475.633876 72.1954331,474.366124 71.4137007,473.582734 L71.4137007,473.582734 Z" id="Path"></path>
                            <path d="M61.4085803,483.582734 C60.6272331,482.804169 59.3634294,482.805991 58.5843269,483.586805 C57.8052244,484.36762 57.8052244,485.63238 58.5843269,486.413195 C59.3634294,487.194009 60.6272331,487.195831 61.4085803,486.417266 C61.7870229,486.042901 62,485.532527 62,485 C62,484.467473 61.7870229,483.957099 61.4085803,483.582734 L61.4085803,483.582734 Z" id="Path"></path>
                            <path d="M52.4111543,493.582734 C51.629217,492.804169 50.364459,492.805991 49.5847682,493.586805 C48.8050773,494.36762 48.8050773,495.63238 49.5847682,496.413195 C50.364459,497.194009 51.629217,497.195831 52.4111543,496.417266 C52.788098,496.041948 53,495.531931 53,495 C53,494.468069 52.788098,493.958052 52.4111543,493.582734 Z" id="Path"></path>
                            <path d="M42.4085803,502.582734 C41.6272331,501.804169 40.3634294,501.805991 39.5843269,502.586805 C38.8052244,503.36762 38.8052244,504.63238 39.5843269,505.413195 C40.3634294,506.194009 41.6272331,506.195831 42.4085803,505.417266 C42.7870229,505.042901 43,504.532527 43,504 C43,503.467473 42.7870229,502.957099 42.4085803,502.582734 Z" id="Path"></path>
                            <path d="M129.417285,396.586372 C128.844987,396.014074 127.983994,395.842685 127.235903,396.152148 C126.487812,396.461611 126,397.190959 126,398 C126,398.809041 126.487812,399.538389 127.235903,399.847852 C127.983994,400.157315 128.844987,399.985926 129.417285,399.413628 C130.194238,398.631098 130.194238,397.368902 129.417285,396.586372 Z" id="Path"></path>
                            <path d="M119.412203,406.586372 C118.840756,406.014074 117.981044,405.842685 117.234065,406.152148 C116.487086,406.461611 116,407.190959 116,408 C116,408.809041 116.487086,409.538389 117.234065,409.847852 C117.981044,410.157315 118.840756,409.985926 119.412203,409.413628 C119.788432,409.039552 120,408.530739 120,408 C120,407.469261 119.788432,406.960448 119.412203,406.586372 Z" id="Path"></path>
                            <path d="M110.412203,415.586372 C109.840756,415.014074 108.981044,414.842685 108.234065,415.152148 C107.487086,415.461611 107,416.190959 107,417 C107,417.809041 107.487086,418.538389 108.234065,418.847852 C108.981044,419.157315 109.840756,418.985926 110.412203,418.413628 C110.788432,418.039552 111,417.530739 111,417 C111,416.469261 110.788432,415.960448 110.412203,415.586372 L110.412203,415.586372 Z" id="Path"></path>
                            <path d="M100.411154,425.582734 C99.629217,424.804169 98.364459,424.805991 97.5847682,425.586805 C96.8050773,426.36762 96.8050773,427.63238 97.5847682,428.413195 C98.364459,429.194009 99.629217,429.195831 100.411154,428.417266 C100.788098,428.041948 101,427.531931 101,427 C101,426.468069 100.788098,425.958052 100.411154,425.582734 Z" id="Path"></path>
                            <path d="M90.4187479,435.587855 C89.8467837,435.014688 88.9854667,434.842531 88.2368648,435.151748 C87.488263,435.460965 87,436.190578 87,437 C87,437.809422 87.488263,438.539035 88.2368648,438.848252 C88.9854667,439.157469 89.8467837,438.985312 90.4187479,438.412145 C91.1937507,437.629971 91.1937507,436.370029 90.4187479,435.587855 Z" id="Path"></path>
                            <path d="M81.4187479,444.587855 C80.8467837,444.014688 79.9854667,443.842531 79.2368648,444.151748 C78.488263,444.460965 78,445.190578 78,446 C78,446.809422 78.488263,447.539035 79.2368648,447.848252 C79.9854667,448.157469 80.8467837,447.985312 81.4187479,447.412145 C82.1937507,446.629971 82.1937507,445.370029 81.4187479,444.587855 Z" id="Path"></path>
                            <path d="M71.4122034,454.586372 C70.8407564,454.014074 69.9810436,453.842685 69.234065,454.152148 C68.4870863,454.461611 68,455.190959 68,456 C68,456.809041 68.4870863,457.538389 69.234065,457.847852 C69.9810436,458.157315 70.8407564,457.985926 71.4122034,457.413628 C71.7884321,457.039552 72,456.530739 72,456 C72,455.469261 71.7884321,454.960448 71.4122034,454.586372 Z" id="Path"></path>
                            <path d="M61.4122034,464.586372 C60.8407564,464.014074 59.9810436,463.842685 59.234065,464.152148 C58.4870863,464.461611 58,465.190959 58,466 C58,466.809041 58.4870863,467.538389 59.234065,467.847852 C59.9810436,468.157315 60.8407564,467.985926 61.4122034,467.413628 C61.7884321,467.039552 62,466.530739 62,466 C62,465.469261 61.7884321,464.960448 61.4122034,464.586372 L61.4122034,464.586372 Z" id="Path"></path>
                            <path d="M52.4085803,473.582734 C51.6272331,472.804169 50.3634294,472.805991 49.5843269,473.586805 C48.8052244,474.36762 48.8052244,475.63238 49.5843269,476.413195 C50.3634294,477.194009 51.6272331,477.195831 52.4085803,476.417266 C52.7870229,476.042901 53,475.532527 53,475 C53,474.467473 52.7870229,473.957099 52.4085803,473.582734 Z" id="Path"></path>
                            <path d="M42.4187479,483.587855 C41.8467837,483.014688 40.9854667,482.842531 40.2368648,483.151748 C39.488263,483.460965 39,484.190578 39,485 C39,485.809422 39.488263,486.539035 40.2368648,486.848252 C40.9854667,487.157469 41.8467837,486.985312 42.4187479,486.412145 C43.1937507,485.629971 43.1937507,484.370029 42.4187479,483.587855 Z" id="Path"></path>
                            <path d="M33.4172849,493.586372 C32.8449868,493.014074 31.9839937,492.842685 31.2359027,493.152148 C30.4878117,493.461611 30,494.190959 30,495 C30,495.809041 30.4878117,496.538389 31.2359027,496.847852 C31.9839937,497.157315 32.8449868,496.985926 33.4172849,496.413628 C34.1942384,495.631098 34.1942384,494.368902 33.4172849,493.586372 L33.4172849,493.586372 Z" id="Path"></path>
                            <path d="M23.4122034,502.586372 C22.8407564,502.014074 21.9810436,501.842685 21.234065,502.152148 C20.4870863,502.461611 20,503.190959 20,504 C20,504.809041 20.4870863,505.538389 21.234065,505.847852 C21.9810436,506.157315 22.8407564,505.985926 23.4122034,505.413628 C23.7884321,505.039552 24,504.530739 24,504 C24,503.469261 23.7884321,502.960448 23.4122034,502.586372 L23.4122034,502.586372 Z" id="Path"></path>
                            <path d="M110.412203,396.586372 C109.840756,396.014074 108.981044,395.842685 108.234065,396.152148 C107.487086,396.461611 107,397.190959 107,398 C107,398.809041 107.487086,399.538389 108.234065,399.847852 C108.981044,400.157315 109.840756,399.985926 110.412203,399.413628 C110.788432,399.039552 111,398.530739 111,398 C111,397.469261 110.788432,396.960448 110.412203,396.586372 Z" id="Path"></path>
                            <path d="M100.412203,406.586372 C99.8407564,406.014074 98.9810436,405.842685 98.234065,406.152148 C97.4870863,406.461611 97,407.190959 97,408 C97,408.809041 97.4870863,409.538389 98.234065,409.847852 C98.9810436,410.157315 99.8407564,409.985926 100.412203,409.413628 C100.788432,409.039552 101,408.530739 101,408 C101,407.469261 100.788432,406.960448 100.412203,406.586372 Z" id="Path"></path>
                            <path d="M90.4137007,415.587855 C89.8425809,415.014688 88.9825354,414.842531 88.2350388,415.151748 C87.4875422,415.460965 87,416.190578 87,417 C87,417.809422 87.4875422,418.539035 88.2350388,418.848252 C88.9825354,419.157469 89.8425809,418.985312 90.4137007,418.412145 C90.7890144,418.038183 91,417.530008 91,417 C91,416.469992 90.7890144,415.961817 90.4137007,415.587855 Z" id="Path"></path>
                            <path d="M81.4187479,425.587855 C80.8467837,425.014688 79.9854667,424.842531 79.2368648,425.151748 C78.488263,425.460965 78,426.190578 78,427 C78,427.809422 78.488263,428.539035 79.2368648,428.848252 C79.9854667,429.157469 80.8467837,428.985312 81.4187479,428.412145 C82.1937507,427.629971 82.1937507,426.370029 81.4187479,425.587855 L81.4187479,425.587855 Z" id="Path"></path>
                            <path d="M71.4187479,435.587855 C70.8467837,435.014688 69.9854667,434.842531 69.2368648,435.151748 C68.488263,435.460965 68,436.190578 68,437 C68,437.809422 68.488263,438.539035 69.2368648,438.848252 C69.9854667,439.157469 70.8467837,438.985312 71.4187479,438.412145 C72.1937507,437.629971 72.1937507,436.370029 71.4187479,435.587855 Z" id="Path"></path>
                            <path d="M61.4122034,444.586372 C60.8407564,444.014074 59.9810436,443.842685 59.234065,444.152148 C58.4870863,444.461611 58,445.190959 58,446 C58,446.809041 58.4870863,447.538389 59.234065,447.847852 C59.9810436,448.157315 60.8407564,447.985926 61.4122034,447.413628 C61.7884321,447.039552 62,446.530739 62,446 C62,445.469261 61.7884321,444.960448 61.4122034,444.586372 L61.4122034,444.586372 Z" id="Path"></path>
                            <path d="M52.4122034,454.586372 C51.8407564,454.014074 50.9810436,453.842685 50.234065,454.152148 C49.4870863,454.461611 49,455.190959 49,456 C49,456.809041 49.4870863,457.538389 50.234065,457.847852 C50.9810436,458.157315 51.8407564,457.985926 52.4122034,457.413628 C52.7884321,457.039552 53,456.530739 53,456 C53,455.469261 52.7884321,454.960448 52.4122034,454.586372 L52.4122034,454.586372 Z" id="Path"></path>
                            <path d="M42.4137007,464.587855 C41.8425809,464.014688 40.9825354,463.842531 40.2350388,464.151748 C39.4875422,464.460965 39,465.190578 39,466 C39,466.809422 39.4875422,467.539035 40.2350388,467.848252 C40.9825354,468.157469 41.8425809,467.985312 42.4137007,467.412145 C42.7890144,467.038183 43,466.530008 43,466 C43,465.469992 42.7890144,464.961817 42.4137007,464.587855 L42.4137007,464.587855 Z" id="Path"></path>
                            <path d="M32.4187479,473.587855 C31.8467837,473.014688 30.9854667,472.842531 30.2368648,473.151748 C29.488263,473.460965 29,474.190578 29,475 C29,475.809422 29.488263,476.539035 30.2368648,476.848252 C30.9854667,477.157469 31.8467837,476.985312 32.4187479,476.412145 C33.1937507,475.629971 33.1937507,474.370029 32.4187479,473.587855 Z" id="Path"></path>
                            <path d="M23.4187479,483.587855 C22.8467837,483.014688 21.9854667,482.842531 21.2368648,483.151748 C20.488263,483.460965 20,484.190578 20,485 C20,485.809422 20.488263,486.539035 21.2368648,486.848252 C21.9854667,487.157469 22.8467837,486.985312 23.4187479,486.412145 C24.1937507,485.629971 24.1937507,484.370029 23.4187479,483.587855 L23.4187479,483.587855 Z" id="Path"></path>
                            <path d="M13.4122034,493.586372 C12.8407564,493.014074 11.9810436,492.842685 11.234065,493.152148 C10.4870863,493.461611 10,494.190959 10,495 C10,495.809041 10.4870863,496.538389 11.234065,496.847852 C11.9810436,497.157315 12.8407564,496.985926 13.4122034,496.413628 C13.7884321,496.039552 14,495.530739 14,495 C14,494.469261 13.7884321,493.960448 13.4122034,493.586372 L13.4122034,493.586372 Z" id="Path"></path>
                            <path d="M3.41220344,502.586372 C2.84075643,502.014074 1.98104358,501.842685 1.23406496,502.152148 C0.487086339,502.461611 0,503.190959 0,504 C0,504.809041 0.487086339,505.538389 1.23406496,505.847852 C1.98104358,506.157315 2.84075643,505.985926 3.41220344,505.413628 C3.78843214,505.039552 4,504.530739 4,504 C4,503.469261 3.78843214,502.960448 3.41220344,502.586372 L3.41220344,502.586372 Z" id="Path"></path>
                        </g>
                    </g>
                </g>
            </g>
        </g>
    </g>
</svg>