<svg xmlns="http://www.w3.org/2000/svg" width="195" height="47" viewBox="0 0 195 47">
    <g fill="none" fill-rule="evenodd">
        <path fill="#FFF" d="M-68-1025h1366v5031H-68z"/>
        <path fill="#FFF" d="M-83-327h827v723H-83z"/>
        <path fill-rule="nonzero" stroke="#3A3A3A" stroke-linecap="square" d="M79.519 5.712v37.311"/>
        <path fill="#868686" d="M11.656 18.769c3.19 0 5.727.894 7.615 2.68 1.888 1.788 2.832 4.236 2.832 7.344 0 3.68-1.136 6.51-3.407 8.493-2.272 1.982-5.52 2.973-9.747 2.973-3.67 0-6.633-.593-8.89-1.78v-6.014c1.189.631 2.573 1.145 4.152 1.543 1.58.398 3.076.597 4.49.597 4.256 0 6.385-1.742 6.385-5.226 0-3.319-2.204-4.978-6.61-4.978-.798 0-1.678.078-2.64.236-.963.158-1.745.327-2.347.507L.714 23.657l1.24-16.782h17.892v5.902H8.07l-.61 6.465.79-.158c.918-.21 2.054-.315 3.407-.315zm37.25 4.573c0 5.752-.944 10.01-2.831 12.773-1.888 2.763-4.795 4.144-8.72 4.144-3.806 0-6.675-1.426-8.608-4.28-1.933-2.853-2.9-7.065-2.9-12.637 0-5.812.94-10.096 2.821-12.852 1.88-2.755 4.776-4.133 8.686-4.133 3.806 0 6.682 1.441 8.63 4.325 1.948 2.883 2.922 7.103 2.922 12.66zm-16.132 0c0 4.04.35 6.934 1.05 8.684.699 1.75 1.876 2.624 3.53 2.624 1.625 0 2.798-.886 3.52-2.658.722-1.772 1.083-4.655 1.083-8.65 0-4.04-.365-6.942-1.094-8.707-.73-1.764-1.9-2.647-3.509-2.647-1.64 0-2.812.883-3.52 2.647-.706 1.765-1.06 4.667-1.06 8.707zm42.507 0c0 5.752-.944 10.01-2.831 12.773-1.888 2.763-4.795 4.144-8.72 4.144-3.806 0-6.675-1.426-8.608-4.28-1.933-2.853-2.9-7.065-2.9-12.637 0-5.812.94-10.096 2.821-12.852 1.88-2.755 4.776-4.133 8.686-4.133 3.806 0 6.682 1.441 8.63 4.325 1.948 2.883 2.922 7.103 2.922 12.66zm-16.132 0c0 4.04.35 6.934 1.05 8.684.699 1.75 1.876 2.624 3.53 2.624 1.625 0 2.798-.886 3.52-2.658.722-1.772 1.083-4.655 1.083-8.65 0-4.04-.365-6.942-1.094-8.707-.73-1.764-1.9-2.647-3.509-2.647-1.64 0-2.812.883-3.52 2.647-.706 1.765-1.06 4.667-1.06 8.707z"/>
        <g fill-rule="nonzero">
            <path fill="#8B8B8B" d="M189.27 17.312c0-1.556 1.284-2.819 2.865-2.819 1.582 0 2.865 1.263 2.865 2.819s-1.283 2.818-2.865 2.818c-1.581 0-2.866-1.262-2.866-2.818"/>
            <path fill="#000" d="M97.9 9.437c0-1.77-.35-3.083-1.05-3.939-.7-.855-1.76-1.282-3.186-1.282h-1.517v10.825h1.16c1.584 0 2.745-.46 3.484-1.381.738-.92 1.108-2.328 1.108-4.223m5.41-.184c0 3.225-.887 5.71-2.659 7.454-1.772 1.745-4.263 2.618-7.475 2.618h-6.24V0h6.676c3.096 0 5.487.793 7.171 2.38 1.684 1.586 2.527 3.876 2.527 6.873M120.5 19.325h4.913V0H120.5zM132.224 12.449c0 1.268.17 2.235.508 2.9.339.666.907.998 1.706.998.79 0 1.35-.332 1.675-.998.326-.665.488-1.632.488-2.9 0-1.262-.165-2.214-.495-2.856-.33-.644-.894-.967-1.694-.967-.782 0-1.341.321-1.68.96-.339.638-.508 1.593-.508 2.863m9.562 0c0 2.416-.648 4.301-1.947 5.652-1.298 1.352-3.116 2.029-5.453 2.029-2.24 0-4.024-.692-5.348-2.074-1.325-1.383-1.988-3.252-1.988-5.607 0-2.41.649-4.281 1.948-5.616 1.3-1.335 3.121-2.002 5.467-2.002 1.45 0 2.732.31 3.843.927a6.315 6.315 0 0 1 2.573 2.654c.604 1.15.905 2.497.905 4.037M144.242 20.13h4.912V5.636h-4.912zM144.242 4.026h4.912V0h-4.912zM158.999 16.173c.68 0 1.49-.167 2.435-.5v3.65a9.95 9.95 0 0 1-1.939.62c-.614.125-1.334.187-2.159.187-1.691 0-2.91-.413-3.66-1.237-.746-.823-1.12-2.088-1.12-3.795v-5.98h-1.764v-3.75h1.764V1.661l5.078-.857v4.562h3.215v3.75h-3.215v5.647c0 .94.455 1.41 1.365 1.41M170.46 16.173c.68 0 1.49-.167 2.436-.5v3.65a9.93 9.93 0 0 1-1.94.62c-.614.125-1.332.187-2.158.187-1.691 0-2.91-.413-3.658-1.237-.747-.823-1.121-2.088-1.121-3.795v-5.98h-1.766v-3.75h1.766V1.605l5.076-.8v4.561h3.216v3.75h-3.216v5.647c0 .94.455 1.41 1.365 1.41M178.842 10.648c.068-.809.299-1.402.693-1.78.396-.378.884-.567 1.47-.567.637 0 1.143.212 1.52.64.378.425.575.994.59 1.707h-4.273zm7.015-4.075c-1.182-1.16-2.86-1.742-5.03-1.742-2.282 0-4.037.667-5.268 2.002-1.23 1.335-1.845 3.25-1.845 5.745 0 2.417.665 4.28 1.992 5.589 1.327 1.308 3.191 1.963 5.592 1.963 1.153 0 2.145-.079 2.976-.236a8.606 8.606 0 0 0 2.402-.84l-.764-3.33c-.564.23-1.1.408-1.607.525-.732.17-1.535.255-2.41.255-.959 0-1.716-.234-2.27-.703-.555-.47-.851-1.119-.885-1.944h8.892v-2.27c0-2.182-.591-3.854-1.775-5.014zM109.772 10.648c.064-.809.281-1.402.652-1.78a1.862 1.862 0 0 1 1.383-.567c.599 0 1.076.212 1.43.64.357.425.541.994.558 1.707h-4.023zm6.603-4.075c-1.113-1.16-2.692-1.742-4.735-1.742-2.148 0-3.8.667-4.957 2.002-1.157 1.335-1.737 3.25-1.737 5.745 0 2.417.625 4.28 1.875 5.589 1.249 1.308 3.003 1.963 5.262 1.963 1.085 0 2.019-.079 2.801-.236a7.8 7.8 0 0 0 2.262-.84l-.72-3.33c-.53.23-1.036.408-1.512.525a9.48 9.48 0 0 1-2.269.255c-.901 0-1.615-.234-2.137-.703-.523-.47-.8-1.119-.832-1.944h8.369v-2.27c0-2.182-.557-3.854-1.67-5.014z"/>
        </g>
        <path fill="#3A3A3A" d="M90.408 32.417h-1.24v-6.503h-2.233v-1.06h5.705v1.06h-2.232v6.503zm5.773.103c-.893 0-1.591-.26-2.095-.778-.503-.52-.755-1.234-.755-2.144 0-.935.233-1.67.7-2.204.468-.535 1.11-.802 1.927-.802.758 0 1.356.23 1.796.688.44.459.66 1.09.66 1.893v.657h-3.827c.017.556.168.982.452 1.28.284.3.683.448 1.199.448.34 0 .655-.032.947-.095.293-.064.607-.17.943-.319v.988a3.755 3.755 0 0 1-.904.3 5.558 5.558 0 0 1-1.043.088zm-.223-5.007c-.388 0-.699.122-.932.367-.234.245-.373.602-.418 1.071h2.606c-.007-.473-.121-.83-.343-1.073-.221-.244-.526-.365-.913-.365zm6.157 5.007c-.869 0-1.53-.252-1.98-.757-.453-.506-.678-1.23-.678-2.176 0-.962.236-1.702.708-2.219.473-.517 1.155-.776 2.048-.776.606 0 1.151.112 1.636.336l-.369.978c-.516-.2-.941-.3-1.277-.3-.993 0-1.49.657-1.49 1.97 0 .642.124 1.124.371 1.447.248.322.61.484 1.088.484.543 0 1.057-.135 1.542-.404v1.06c-.218.128-.451.22-.699.275a4.204 4.204 0 0 1-.9.082zm8-.103h-1.226v-3.518c0-.441-.089-.77-.267-.988-.178-.217-.461-.326-.849-.326-.512 0-.888.153-1.129.458-.24.305-.36.817-.36 1.534v2.84h-1.22v-8.05h1.22v2.044c0 .328-.021.678-.063 1.05h.078c.166-.276.397-.49.693-.641a2.24 2.24 0 0 1 1.036-.228c1.39 0 2.087.698 2.087 2.095v3.73zm6.748 0h-1.225v-3.518c0-.441-.089-.77-.267-.988-.178-.217-.461-.326-.849-.326-.516 0-.893.152-1.132.455-.239.304-.358.813-.358 1.527v2.85h-1.22v-5.722h.955l.172.75H113c.173-.272.419-.482.737-.63a2.478 2.478 0 0 1 1.06-.223c1.377 0 2.065.698 2.065 2.095v3.73zm6.79-2.871c0 .935-.24 1.664-.721 2.188-.481.524-1.15.786-2.01.786-.536 0-1.01-.12-1.422-.362a2.394 2.394 0 0 1-.95-1.04c-.221-.451-.332-.975-.332-1.572 0-.928.239-1.652.717-2.173.477-.52 1.15-.781 2.02-.781.83 0 1.487.266 1.972.8.484.532.727 1.25.727 2.154zm-4.178 0c0 1.32.49 1.981 1.469 1.981.969 0 1.453-.66 1.453-1.981 0-1.307-.488-1.96-1.464-1.96-.512 0-.883.168-1.113.506-.23.338-.345.823-.345 1.454zm6.8 2.871h-1.22v-8.05h1.22v8.05zm6.837-2.871c0 .935-.24 1.664-.721 2.188-.481.524-1.151.786-2.01.786-.536 0-1.01-.12-1.422-.362a2.394 2.394 0 0 1-.95-1.04c-.221-.451-.332-.975-.332-1.572 0-.928.239-1.652.716-2.173.478-.52 1.151-.781 2.02-.781.83 0 1.488.266 1.972.8.485.532.727 1.25.727 2.154zm-4.179 0c0 1.32.49 1.981 1.47 1.981.968 0 1.453-.66 1.453-1.981 0-1.307-.488-1.96-1.464-1.96-.512 0-.883.168-1.114.506-.23.338-.345.823-.345 1.454zm10.43-2.85v.667l-.982.18a1.75 1.75 0 0 1 .311 1.004c0 .59-.203 1.054-.612 1.392-.408.338-.97.507-1.687.507-.183 0-.35-.014-.498-.041-.263.162-.395.351-.395.569 0 .13.062.229.185.295.122.065.348.098.677.098h1.002c.633 0 1.114.134 1.443.403.329.27.493.657.493 1.164 0 .649-.268 1.149-.804 1.5-.537.352-1.312.528-2.326.528-.782 0-1.38-.138-1.791-.414-.412-.276-.618-.669-.618-1.18 0-.35.112-.647.335-.886.223-.24.536-.406.937-.5a.916.916 0 0 1-.402-.333.84.84 0 0 1-.159-.484.83.83 0 0 1 .182-.543c.121-.148.301-.295.54-.44a1.598 1.598 0 0 1-.724-.623 1.829 1.829 0 0 1-.278-1.012c0-.62.196-1.101.59-1.443.392-.341.952-.512 1.679-.512.162 0 .333.011.511.034.178.022.312.045.402.07h1.989zm-4.512 6.61c0 .263.119.465.356.606.237.141.57.212 1 .212.664 0 1.159-.095 1.484-.284.325-.19.488-.442.488-.756 0-.248-.09-.425-.267-.53-.179-.105-.51-.158-.995-.158h-.924c-.35 0-.627.082-.833.246a.805.805 0 0 0-.309.665zm.525-4.759c0 .36.092.635.277.828.186.193.451.29.797.29.706 0 1.06-.376 1.06-1.128 0-.372-.088-.66-.263-.861-.175-.202-.44-.303-.797-.303-.353 0-.62.1-.802.3-.182.2-.272.492-.272.874zm4.179-1.852h1.329l1.168 3.244c.176.462.294.897.353 1.304h.041c.031-.19.089-.42.172-.69.083-.272.522-1.557 1.318-3.858h1.319l-2.456 6.482c-.446 1.19-1.19 1.785-2.232 1.785-.27 0-.533-.03-.79-.088v-.962c.184.041.394.062.63.062.587 0 1.001-.34 1.24-1.019l.213-.538-2.305-5.722zm11 5.722h-1.583v-7.563h4.35v1.314h-2.767v1.95h2.575v1.309h-2.575v2.99zm7.813 0l-.306-.786h-.042c-.266.334-.54.566-.823.695-.282.13-.65.194-1.103.194-.557 0-.996-.158-1.316-.475-.32-.318-.48-.77-.48-1.356 0-.614.216-1.066.646-1.358.431-.291 1.081-.452 1.95-.483l1.007-.032v-.253c0-.586-.301-.88-.903-.88-.464 0-1.01.14-1.636.42l-.524-1.066a4.732 4.732 0 0 1 2.222-.523c.779 0 1.376.17 1.79.507.416.338.624.852.624 1.542v3.854h-1.106zm-.467-2.68l-.613.021c-.46.014-.803.097-1.028.248-.225.152-.337.383-.337.693 0 .445.256.668.768.668.367 0 .66-.105.88-.316.22-.21.33-.49.33-.838v-.476zm7.252.962c0 .594-.207 1.045-.62 1.356-.414.31-1.032.465-1.856.465a5.85 5.85 0 0 1-1.08-.085 4.095 4.095 0 0 1-.836-.25V30.88c.295.138.626.253.994.346.37.093.694.14.974.14.574 0 .862-.166.862-.497a.414.414 0 0 0-.115-.302 1.656 1.656 0 0 0-.394-.264 9.981 9.981 0 0 0-.748-.344c-.446-.187-.774-.359-.983-.518a1.457 1.457 0 0 1-.457-.545 1.796 1.796 0 0 1-.143-.758c0-.514.2-.912.6-1.193.4-.28.966-.421 1.7-.421.699 0 1.379.152 2.04.455l-.478 1.138a8.805 8.805 0 0 0-.815-.305 2.568 2.568 0 0 0-.773-.12c-.467 0-.701.127-.701.379 0 .14.075.263.226.367.15.103.48.257.989.46.453.183.785.354.996.512.212.159.367.342.468.549.1.207.15.453.15.74zm3.68.564c.278 0 .61-.06.998-.18v1.174c-.395.175-.88.263-1.454.263-.633 0-1.094-.16-1.383-.478-.29-.32-.434-.798-.434-1.436v-2.788h-.758v-.667l.872-.528.457-1.22h1.012v1.23h1.625v1.185h-1.625v2.788c0 .225.064.39.19.497.126.107.293.16.5.16zm7.29-3.678c.733 0 1.317.205 1.752.616.434.41.651.972.651 1.686 0 .845-.261 1.495-.784 1.95-.522.456-1.27.683-2.242.683-.845 0-1.527-.136-2.046-.408V30.73c.274.144.592.262.955.354a4.24 4.24 0 0 0 1.033.137c.98 0 1.47-.4 1.47-1.2 0-.762-.507-1.143-1.521-1.143a3.79 3.79 0 0 0-.608.054 4.458 4.458 0 0 0-.54.116l-.638-.341.285-3.854h4.117v1.355h-2.71l-.14 1.485.182-.036c.21-.049.472-.073.784-.073zm8.57 1.05c0 1.321-.217 2.299-.651 2.934-.434.634-1.103.951-2.006.951-.876 0-1.536-.327-1.981-.982-.445-.656-.667-1.623-.667-2.903 0-1.334.216-2.318.649-2.95.432-.634 1.099-.95 1.999-.95.875 0 1.537.33 1.985.993.448.662.672 1.631.672 2.907zm-3.711 0c0 .928.08 1.593.241 1.995.161.401.432.602.813.602.373 0 .643-.203.81-.61.165-.407.249-1.07.249-1.987 0-.927-.084-1.594-.252-1.999-.168-.405-.437-.608-.807-.608-.378 0-.648.203-.81.608-.163.405-.244 1.072-.244 2zm9.78 0c0 1.321-.217 2.299-.651 2.934-.435.634-1.104.951-2.007.951-.875 0-1.536-.327-1.98-.982-.445-.656-.667-1.623-.667-2.903 0-1.334.216-2.318.649-2.95.432-.634 1.098-.95 1.998-.95.876 0 1.538.33 1.986.993.448.662.672 1.631.672 2.907zm-3.712 0c0 .928.08 1.593.242 1.995.16.401.431.602.812.602.374 0 .644-.203.81-.61.166-.407.25-1.07.25-1.987 0-.927-.085-1.594-.253-1.999-.167-.405-.436-.608-.807-.608-.377 0-.647.203-.81.608-.162.405-.244 1.072-.244 2z"/>
        <path fill="#303030" d="M117.787 43.971h-2.846l-.978 2.547h-.541l2.817-7.244h.312l2.76 7.244h-.551l-.973-2.547zm-2.669-.454h2.506l-.953-2.6c-.08-.204-.176-.487-.288-.849-.086.316-.18.602-.283.859l-.982 2.59zm9.402-2.141c0 .697-.23 1.232-.69 1.604-.46.371-1.112.557-1.955.557h-1.083v2.98h-.49v-7.213h1.716c1.668 0 2.502.69 2.502 2.072zm-3.728 1.727h.963c.789 0 1.36-.134 1.71-.402.352-.268.528-.703.528-1.305 0-.556-.166-.968-.499-1.236-.332-.268-.846-.402-1.543-.402h-1.16v3.345zm8.625.868h-2.846l-.978 2.547h-.541l2.817-7.244h.312l2.76 7.244h-.551l-.973-2.547zm-2.669-.454h2.506l-.953-2.6c-.08-.204-.176-.487-.288-.849-.086.316-.18.602-.283.859l-.982 2.59zm8.175-3.863c-.878 0-1.57.29-2.075.868-.505.58-.757 1.372-.757 2.379 0 1.03.238 1.829.714 2.398.476.569 1.157.853 2.041.853a5.38 5.38 0 0 0 1.62-.232v.445c-.463.167-1.041.251-1.735.251-.983 0-1.758-.327-2.324-.982-.565-.654-.848-1.569-.848-2.743 0-.734.135-1.38.405-1.94.27-.559.658-.99 1.165-1.295.506-.304 1.095-.456 1.765-.456.684 0 1.296.132 1.836.395l-.197.454a3.471 3.471 0 0 0-1.61-.395zM86.985 45.34l2.745-2.671c.222-.213.398-.427.528-.643.131-.216.196-.464.196-.743 0-.332-.108-.596-.326-.792a1.166 1.166 0 0 0-.81-.294c-.342 0-.616.114-.824.344-.208.229-.335.516-.382.862l-1.177-.18a2.19 2.19 0 0 1 .252-.807 2.272 2.272 0 0 1 1.241-1.061c.279-.103.582-.155.91-.155.309 0 .605.043.89.13.285.086.538.217.76.393.22.176.397.392.527.648.131.256.196.553.196.892 0 .226-.03.437-.09.633a2.49 2.49 0 0 1-.246.554 3.394 3.394 0 0 1-.362.493 5.712 5.712 0 0 1-.448.454l-2.051 1.943h3.207v1.097h-4.736V45.34zm11.021-2.432c0 .572-.055 1.087-.166 1.545-.11.459-.271.847-.483 1.166a2.235 2.235 0 0 1-.784.738c-.312.173-.669.26-1.07.26a2.2 2.2 0 0 1-1.077-.26 2.263 2.263 0 0 1-.794-.738 3.577 3.577 0 0 1-.488-1.166 6.603 6.603 0 0 1-.166-1.545c0-.571.056-1.086.166-1.545.11-.458.273-.847.488-1.166.214-.32.48-.565.794-.738a2.2 2.2 0 0 1 1.076-.259c.402 0 .76.086 1.071.26.312.172.573.418.784.737.212.319.372.708.483 1.166.11.459.166.974.166 1.545zm-1.237 0c0-.246-.015-.525-.045-.837a4.167 4.167 0 0 0-.181-.887c-.09-.28-.22-.514-.387-.703a.832.832 0 0 0-.654-.284.843.843 0 0 0-.663.284c-.168.19-.297.424-.388.703-.09.279-.152.574-.186.887-.033.312-.05.591-.05.837s.017.525.05.837c.034.313.096.605.186.878.09.272.22.503.388.692.167.19.388.284.663.284a.832.832 0 0 0 .654-.284c.167-.189.296-.42.387-.692.09-.273.15-.565.18-.878.031-.312.046-.591.046-.837zm4.595-2.073l-1.407 1.146-.704-.827 2.222-1.775h1.096v7.058h-1.207v-5.602zm6.396-1.635c.308 0 .6.043.874.13.275.086.515.212.72.378.204.167.365.368.482.603.117.236.176.504.176.803 0 .412-.104.754-.312 1.027a1.616 1.616 0 0 1-.794.568v.02a1.739 1.739 0 0 1 .945.603c.12.15.216.317.287.503.07.186.105.389.105.608 0 .352-.065.663-.196.932-.13.27-.308.497-.533.683a2.27 2.27 0 0 1-.79.419c-.3.093-.623.14-.964.14-.342 0-.664-.047-.966-.14a2.27 2.27 0 0 1-.79-.419 2.023 2.023 0 0 1-.532-.683c-.13-.269-.196-.58-.196-.932a1.743 1.743 0 0 1 .407-1.136 1.71 1.71 0 0 1 .428-.364c.16-.096.328-.168.502-.214v-.02a1.763 1.763 0 0 1-.794-.548c-.208-.253-.312-.585-.312-.997 0-.3.059-.57.176-.813.117-.242.278-.448.483-.618.204-.17.442-.3.714-.393.271-.093.565-.14.88-.14zm0 .987c-.302 0-.548.09-.74.269-.19.18-.286.422-.286.728 0 .285.092.528.276.727.185.2.435.3.75.3a1.034 1.034 0 0 0 1.035-1.027.948.948 0 0 0-.317-.728 1.093 1.093 0 0 0-.719-.27zm0 3.04c-.175 0-.337.03-.488.09-.15.06-.282.141-.392.244-.11.103-.198.23-.262.379-.063.15-.095.314-.095.493 0 .372.117.661.352.867.234.206.53.31.885.31.348 0 .64-.104.874-.31.235-.206.352-.495.352-.867a1.22 1.22 0 0 0-.095-.483 1.15 1.15 0 0 0-.654-.633c-.15-.06-.31-.09-.477-.09z"/>
    </g>
</svg>
