<svg xmlns="http://www.w3.org/2000/svg" width="56" height="35" viewBox="0 0 56 35">
    <g fill="none" fill-rule="evenodd">
        <path fill="#000" fill-rule="nonzero" d="M8.218 14.27a6.526 6.526 0 0 0 3.078-.756c.96-.504 1.755-1.272 2.385-2.304.63-1.032.945-2.232.945-3.6 0-1.032-.183-1.974-.549-2.826-.366-.852-.852-1.551-1.458-2.097a6.746 6.746 0 0 0-2.043-1.269 6.336 6.336 0 0 0-2.358-.45c-.816 0-1.602.15-2.358.45-.756.3-1.437.723-2.043 1.269-.606.546-1.092 1.245-1.458 2.097-.366.852-.549 1.794-.549 2.826 0 1.368.315 2.568.945 3.6.63 1.032 1.425 1.8 2.385 2.304.96.504 1.986.756 3.078.756zm0-1.62c-1.272 0-2.358-.444-3.258-1.332-.9-.888-1.35-2.124-1.35-3.708s.45-2.814 1.35-3.69c.9-.888 1.986-1.332 3.258-1.332s2.358.441 3.258 1.323c.9.882 1.35 2.115 1.35 3.699 0 1.584-.45 2.82-1.35 3.708-.9.888-1.986 1.332-3.258 1.332zm12.366 1.62c1.296 0 2.358-.435 3.186-1.305.828-.87 1.242-1.971 1.242-3.303 0-1.32-.417-2.415-1.251-3.285-.834-.87-1.893-1.305-3.177-1.305s-2.346.438-3.186 1.314c-.828.864-1.242 1.956-1.242 3.276 0 1.332.414 2.433 1.242 3.303.828.87 1.89 1.305 3.186 1.305zm0-1.512c-.756 0-1.398-.27-1.926-.81-.516-.552-.774-1.314-.774-2.286 0-.96.261-1.713.783-2.259a2.55 2.55 0 0 1 1.917-.819 2.55 2.55 0 0 1 1.917.819c.522.546.783 1.299.783 2.259 0 .972-.261 1.731-.783 2.277a2.55 2.55 0 0 1-1.917.819zm9.576 1.332c.48 0 .864-.054 1.152-.162v-1.44a2.761 2.761 0 0 1-.666.072c-.432 0-.741-.096-.927-.288-.186-.192-.279-.492-.279-.9v-4.5h1.872v-1.53H29.44V2.606h-1.548V4.01c0 .396-.111.717-.333.963-.222.246-.555.369-.999.369h-.468v1.53h1.656v4.752c0 .78.216 1.386.648 1.818.432.432 1.02.648 1.764.648zm5.76.18c.696 0 1.275-.144 1.737-.432.462-.288.813-.624 1.053-1.008 0 .42.03.81.09 1.17h1.656a8.674 8.674 0 0 1-.108-1.422V8.24c0-.924-.294-1.683-.882-2.277-.588-.594-1.494-.891-2.718-.891-.936 0-1.74.261-2.412.783-.672.522-1.05 1.197-1.134 2.025l1.62.378c.06-.528.258-.951.594-1.269.336-.318.792-.477 1.368-.477.624 0 1.092.144 1.404.432.312.288.468.66.468 1.116 0 .372-.222.588-.666.648l-2.34.342c-.792.108-1.428.387-1.908.837-.48.45-.72 1.047-.72 1.791 0 .708.27 1.317.81 1.827s1.236.765 2.088.765zm.234-1.422c-.42 0-.759-.126-1.017-.378a1.195 1.195 0 0 1-.387-.882c0-.372.114-.666.342-.882.228-.216.534-.354.918-.414l2.646-.396v.396c0 .888-.228 1.536-.684 1.944-.456.408-1.062.612-1.818.612z"/>
        <path stroke="#19C9C1" stroke-linecap="square" stroke-width="2" d="M1.5 33.5h53"/>
    </g>
</svg>
