<?xml version="1.0" encoding="UTF-8"?>
<svg width="63px" height="32px" viewBox="0 0 63 32" version="1.1" xmlns="http://www.w3.org/2000/svg" xmlns:xlink="http://www.w3.org/1999/xlink">
    <!-- Generator: Sketch 58 (84663) - https://sketch.com -->
    <title>sofy</title>
    <desc>Created with Sketch.</desc>
    <g id="Clutch" stroke="none" stroke-width="1" fill="none" fill-rule="evenodd">
        <g id="Homepage-clutch6" transform="translate(-919.000000, -940.000000)">
            <g id="sofy" transform="translate(920.000000, 937.000000)">
                <path d="M7.588,6.328 C7.364,5.25 6.468,3.864 4.228,3.864 C2.394,3.864 0.952,5.264 0.952,6.818 C0.952,8.302 1.96,9.226 3.374,9.534 L4.788,9.842 C5.782,10.052 6.272,10.668 6.272,11.382 C6.272,12.25 5.6,12.964 4.228,12.964 C2.73,12.964 1.946,11.942 1.848,10.836 L0.532,11.256 C0.714,12.67 1.848,14.21 4.242,14.21 C6.356,14.21 7.672,12.81 7.672,11.27 C7.672,9.884 6.748,8.848 5.096,8.484 L3.612,8.162 C2.772,7.98 2.338,7.434 2.338,6.72 C2.338,5.796 3.136,5.068 4.256,5.068 C5.642,5.068 6.244,6.048 6.356,6.762 L7.588,6.328 Z M14.166,13.034 C13.046,13.034 12.066,12.194 12.066,10.626 C12.066,9.072 13.046,8.232 14.166,8.232 C15.286,8.232 16.266,9.072 16.266,10.626 C16.266,12.194 15.286,13.034 14.166,13.034 Z M14.166,7.056 C12.15,7.056 10.722,8.582 10.722,10.626 C10.722,12.684 12.15,14.21 14.166,14.21 C16.182,14.21 17.61,12.684 17.61,10.626 C17.61,8.582 16.182,7.056 14.166,7.056 Z M24.678,8.456 L24.678,7.266 L23.054,7.266 L23.054,6.202 C23.054,5.278 23.656,5.054 24.118,5.054 C24.454,5.054 24.622,5.11 24.692,5.138 L24.692,3.962 C24.636,3.92 24.356,3.822 23.908,3.822 C22.69,3.822 21.696,4.634 21.696,6.132 L21.696,7.266 L20.45,7.266 L20.45,8.456 L21.696,8.456 L21.696,14 L23.054,14 L23.054,8.456 L24.678,8.456 Z M29.982,16.814 L34.364,7.266 L32.95,7.266 L30.934,11.914 L28.834,7.266 L27.322,7.266 L30.22,13.258 L28.54,16.814 L29.982,16.814 Z M50.152,5.348 L50.152,4.074 L42.144,4.074 L42.144,5.348 L45.462,5.348 L45.462,14 L46.834,14 L46.834,5.348 L50.152,5.348 Z M57.164,12.236 L60.188,4.074 L61.63,4.074 L57.808,14 L56.45,14 L52.712,4.074 L54.168,4.074 L57.164,12.236 Z" id="SofyTV" fill="#000000" fill-rule="nonzero"></path>
                <path d="M0.5,33.5 L53.5,33.5" id="Line-2" stroke="#D00025" stroke-width="2" stroke-linecap="square"></path>
            </g>
        </g>
    </g>
</svg>