<svg xmlns="http://www.w3.org/2000/svg" width="116" height="116" viewBox="0 0 116 116">
    <g fill="none" fill-rule="evenodd">
        <path fill="#FFF" d="M-108-1149h1366v5031H-108z"/>
        <path fill="#FFF" d="M-123-451h827v723h-827z"/>
        <g>
            <circle cx="58" cy="58" r="57.25" fill="#FFF" fill-rule="nonzero" stroke="#8E8E8E" stroke-width="1.5"/>
            <g fill-rule="nonzero">
                <path fill="#4A4A4A" d="M67.36 59.98c-3.352 0-6.095 2.742-6.095 6.17 0 3.429 2.743 6.171 6.095 6.171 3.351 0 6.094-2.742 6.094-6.17 0-3.429-2.743-6.171-6.094-6.171zm0 9.827c-1.981 0-3.581-1.6-3.581-3.58 0-1.981 1.6-3.58 3.58-3.58 1.981 0 3.581 1.599 3.581 3.58 0 1.904-1.676 3.58-3.58 3.58zm13.56-6.856c-1.752 0-3.124 1.447-3.124 3.2v5.865H75.13V60.361h2.666v1.828s1.143-1.828 3.428-1.828h.762v2.59H80.92zm-26.587-2.59l1.98 7.999 2.133-8h2.667L57.76 72.017h-2.59l-2.057-8.151-2.057 8.151h-2.59l-3.428-11.655h2.59l2.285 7.999 1.905-8h2.514zM89.757 65.693c1.828-1.066 3.123-3.047 3.123-5.332h-2.666c0 1.98-1.6 3.58-3.505 3.58h-.38v-9.218h-2.667v17.293h2.667v-5.485h.304c.305 0 .61.153.686.381l3.733 5.104h3.123l-4.418-6.323z"/>
                <path fill="#959595" d="M38.868 59.98c-2.895 0-5.104 1.904-5.942 4.951a26.943 26.943 0 0 1-3.047-6.627H26.83v8.075c0 1.6-1.295 2.895-2.895 2.895a2.894 2.894 0 0 1-2.894-2.895v-8.075h-3.048v8.075c0 3.352 2.667 6.018 5.942 6.018 3.276 0 5.943-2.666 5.943-6.018v-1.371a25.93 25.93 0 0 0 2.209 3.656l-1.905 8.914h3.124l1.37-6.476c1.22.762 2.591 1.219 4.19 1.219 3.353 0 6.095-2.742 6.095-6.247 0-3.352-2.742-6.094-6.094-6.094zm0 9.218c-1.219 0-2.438-.534-3.428-1.372l.304-1.219v-.076c.229-1.295.915-3.504 3.2-3.504a3.056 3.056 0 0 1 3.047 3.047c-.076 1.752-1.523 3.124-3.123 3.124z"/>
                <path fill="#6C6C6C" d="M94.556 60.742h-.838v-.305h2.057v.305h-.838v2.361h-.305v-2.361h-.076zm1.752-.305h.305l.914 1.447.914-1.447h.305v2.59h-.305v-2.133l-.914 1.371-.914-1.371v2.133h-.305v-2.59z"/>
            </g>
            <path fill="#878787" d="M45.3 37.078v-1.145h4.54v1.145h-1.555v4.724h-1.43v-4.724h-1.554zm11.036 1.773c0 1.764-1.337 3.01-3.001 3.01s-3.018-1.246-3.018-3.01c0-1.764 1.354-3.002 3.018-3.002 1.672 0 3.001 1.238 3.001 3.002zm-4.556 0c0 1.028.602 1.705 1.555 1.705.936 0 1.547-.677 1.547-1.705 0-1.045-.61-1.706-1.547-1.706-.953 0-1.555.66-1.555 1.706zm6.78-.293h.778c.568 0 .81-.284.81-.736 0-.451-.242-.735-.81-.735h-.778v1.471zm3.043-.736c0 .97-.66 1.873-2.157 1.873h-.886v2.107h-1.43v-5.87h2.316c1.438 0 2.157.812 2.157 1.89zm5.618.017c0-.435-.25-.719-.785-.719h-.887v1.455h.887c.535 0 .785-.276.785-.736zm-3.101-1.906h2.4c1.437 0 2.156.828 2.156 1.847 0 .736-.401 1.43-1.304 1.698l1.354 2.324h-1.613l-1.22-2.216h-.344v2.216h-1.43v-5.87zm9.455 5.869l-.35-1.037h-2.191l-.351 1.037h-1.497l2.124-5.87h1.655l2.124 5.87h-1.514zm-.719-2.14l-.727-2.15-.719 2.15h1.446zm2.559-2.584v-1.145h4.54v1.145h-1.556v4.724h-1.43v-4.724h-1.554zm8.853-1.145v1.145h-2.165v1.187h1.914v1.104h-1.914v1.287h2.165v1.146h-3.595v-5.87h3.595zm3.127 0c1.873 0 3.077 1.187 3.077 2.934 0 1.74-1.204 2.935-3.077 2.935h-2.199v-5.87h2.199zm-.77 4.631h.678c1.079 0 1.714-.618 1.714-1.697 0-1.078-.635-1.714-1.714-1.714h-.677v3.411z"/>
            <g fill-rule="nonzero">
                <path fill="#969696" d="M25.081 33.441h12.54v7.316l-4.855 4.856a2 2 0 0 1-2.829 0l-4.856-4.856V33.44z"/>
                <path fill="#FFF" d="M34.4 37.492a.245.245 0 0 0-.266-.033l-1.34.652-1.258-1.45a.245.245 0 0 0-.37 0l-1.257 1.45-1.34-.652a.245.245 0 0 0-.342.291l.93 2.017a.245.245 0 0 0 .235.173h3.919c.108 0 .203-.07.234-.173l.93-2.017a.245.245 0 0 0-.074-.258z"/>
                <path stroke="#FFF" stroke-linecap="square" stroke-width=".5" d="M28.739 41.28h5.225"/>
            </g>
        </g>
    </g>
</svg>
