<?xml version="1.0" standalone="no"?>
<svg xmlns:xlink="http://www.w3.org/1999/xlink" id="wave" style="transform:rotate(0deg); transition: 0.3s" viewBox="0 0 1440 290" version="1.1" xmlns="http://www.w3.org/2000/svg"><defs><linearGradient id="sw-gradient-0" x1="0" x2="0" y1="1" y2="0"><stop stop-color="rgba(243, 106, 62, 1)" offset="0%"/><stop stop-color="rgba(248.62, 191.172, 64.18, 1)" offset="100%"/></linearGradient></defs><path style="transform:translate(0, 0px); opacity:1" fill="url(#sw-gradient-0)" d="M0,58L80,82.2C160,106,320,155,480,174C640,193,800,184,960,154.7C1120,126,1280,77,1440,58C1600,39,1760,48,1920,58C2080,68,2240,77,2400,72.5C2560,68,2720,48,2880,67.7C3040,87,3200,145,3360,178.8C3520,213,3680,222,3840,203C4000,184,4160,135,4320,111.2C4480,87,4640,87,4800,87C4960,87,5120,87,5280,116C5440,145,5600,203,5760,212.7C5920,222,6080,184,6240,178.8C6400,174,6560,203,6720,198.2C6880,193,7040,155,7200,140.2C7360,126,7520,135,7680,125.7C7840,116,8000,87,8160,77.3C8320,68,8480,77,8640,72.5C8800,68,8960,48,9120,67.7C9280,87,9440,145,9600,164.3C9760,184,9920,164,10080,159.5C10240,155,10400,164,10560,164.3C10720,164,10880,155,11040,149.8C11200,145,11360,145,11440,145L11520,145L11520,290L11440,290C11360,290,11200,290,11040,290C10880,290,10720,290,10560,290C10400,290,10240,290,10080,290C9920,290,9760,290,9600,290C9440,290,9280,290,9120,290C8960,290,8800,290,8640,290C8480,290,8320,290,8160,290C8000,290,7840,290,7680,290C7520,290,7360,290,7200,290C7040,290,6880,290,6720,290C6560,290,6400,290,6240,290C6080,290,5920,290,5760,290C5600,290,5440,290,5280,290C5120,290,4960,290,4800,290C4640,290,4480,290,4320,290C4160,290,4000,290,3840,290C3680,290,3520,290,3360,290C3200,290,3040,290,2880,290C2720,290,2560,290,2400,290C2240,290,2080,290,1920,290C1760,290,1600,290,1440,290C1280,290,1120,290,960,290C800,290,640,290,480,290C320,290,160,290,80,290L0,290Z"/></svg>